M48
INCH
T1C0.0118
%
G90
G05
T1
X0.018Y-0.375
X0.029Y-0.147
X0.029Y-0.195
X0.04Y-0.34
X0.067Y-0.289
X0.105Y-0.047
X0.105Y-0.084
X0.177Y-0.145
X0.215Y-0.187
X0.216Y-0.109
X0.248Y-0.147
X0.304Y-0.376
X0.32Y-0.036
X0.355Y-0.085
X0.361Y-0.376
X0.384Y-0.04
X0.412Y-0.216
X0.45Y-0.137
X0.526Y-0.375
X0.58Y-0.197
X0.587Y-0.288
X0.634Y-0.374
X0.69Y-0.374
X0.727Y-0.189
X0.736Y-0.245
X0.757Y-0.372
X0.767Y-0.284
X0.783Y-0.188
X0.789Y-0.239
X0.853Y-0.113
X0.877Y-0.25
X0.884Y-0.376
M30
