%TF.GenerationSoftware,KiCad,Pcbnew,7.0.10*%
%TF.CreationDate,2024-01-27T16:24:37+01:00*%
%TF.ProjectId,Mouse_charger,4d6f7573-655f-4636-9861-726765722e6b,rev?*%
%TF.SameCoordinates,Original*%
%TF.FileFunction,Legend,Top*%
%TF.FilePolarity,Positive*%
%FSLAX46Y46*%
G04 Gerber Fmt 4.6, Leading zero omitted, Abs format (unit mm)*
G04 Created by KiCad (PCBNEW 7.0.10) date 2024-01-27 16:24:37*
%MOMM*%
%LPD*%
G01*
G04 APERTURE LIST*
G04 Aperture macros list*
%AMRoundRect*
0 Rectangle with rounded corners*
0 $1 Rounding radius*
0 $2 $3 $4 $5 $6 $7 $8 $9 X,Y pos of 4 corners*
0 Add a 4 corners polygon primitive as box body*
4,1,4,$2,$3,$4,$5,$6,$7,$8,$9,$2,$3,0*
0 Add four circle primitives for the rounded corners*
1,1,$1+$1,$2,$3*
1,1,$1+$1,$4,$5*
1,1,$1+$1,$6,$7*
1,1,$1+$1,$8,$9*
0 Add four rect primitives between the rounded corners*
20,1,$1+$1,$2,$3,$4,$5,0*
20,1,$1+$1,$4,$5,$6,$7,0*
20,1,$1+$1,$6,$7,$8,$9,0*
20,1,$1+$1,$8,$9,$2,$3,0*%
G04 Aperture macros list end*
%ADD10C,0.150000*%
%ADD11C,0.200000*%
%ADD12C,0.120000*%
%ADD13C,0.127000*%
%ADD14C,0.100000*%
%ADD15RoundRect,0.102000X-0.750000X-1.800000X0.750000X-1.800000X0.750000X1.800000X-0.750000X1.800000X0*%
%ADD16RoundRect,0.140000X0.170000X-0.140000X0.170000X0.140000X-0.170000X0.140000X-0.170000X-0.140000X0*%
%ADD17RoundRect,0.054880X0.337120X-0.652120X0.337120X0.652120X-0.337120X0.652120X-0.337120X-0.652120X0*%
%ADD18RoundRect,0.150000X-0.625000X0.150000X-0.625000X-0.150000X0.625000X-0.150000X0.625000X0.150000X0*%
%ADD19RoundRect,0.250000X-0.650000X0.350000X-0.650000X-0.350000X0.650000X-0.350000X0.650000X0.350000X0*%
%ADD20RoundRect,0.150000X-0.150000X-0.625000X0.150000X-0.625000X0.150000X0.625000X-0.150000X0.625000X0*%
%ADD21RoundRect,0.250000X-0.350000X-0.650000X0.350000X-0.650000X0.350000X0.650000X-0.350000X0.650000X0*%
%ADD22RoundRect,0.150000X-0.150000X0.512500X-0.150000X-0.512500X0.150000X-0.512500X0.150000X0.512500X0*%
%ADD23RoundRect,0.135000X0.185000X-0.135000X0.185000X0.135000X-0.185000X0.135000X-0.185000X-0.135000X0*%
%ADD24RoundRect,0.135000X0.135000X0.185000X-0.135000X0.185000X-0.135000X-0.185000X0.135000X-0.185000X0*%
%ADD25RoundRect,0.135000X-0.135000X-0.185000X0.135000X-0.185000X0.135000X0.185000X-0.135000X0.185000X0*%
%ADD26RoundRect,0.147500X-0.147500X-0.172500X0.147500X-0.172500X0.147500X0.172500X-0.147500X0.172500X0*%
%ADD27RoundRect,0.225000X-0.250000X0.225000X-0.250000X-0.225000X0.250000X-0.225000X0.250000X0.225000X0*%
%ADD28RoundRect,0.225000X0.250000X-0.225000X0.250000X0.225000X-0.250000X0.225000X-0.250000X-0.225000X0*%
%ADD29RoundRect,0.140000X-0.140000X-0.170000X0.140000X-0.170000X0.140000X0.170000X-0.140000X0.170000X0*%
%ADD30RoundRect,0.140000X-0.170000X0.140000X-0.170000X-0.140000X0.170000X-0.140000X0.170000X0.140000X0*%
G04 APERTURE END LIST*
D10*
X11990400Y-4714771D02*
X11704686Y-4714771D01*
X11704686Y-4714771D02*
X11704686Y-4114771D01*
X12504685Y-4714771D02*
X12161828Y-4714771D01*
X12333257Y-4714771D02*
X12333257Y-4114771D01*
X12333257Y-4114771D02*
X12276114Y-4200485D01*
X12276114Y-4200485D02*
X12218971Y-4257628D01*
X12218971Y-4257628D02*
X12161828Y-4286200D01*
X9044000Y-9788428D02*
X9015428Y-9817000D01*
X9015428Y-9817000D02*
X8929714Y-9845571D01*
X8929714Y-9845571D02*
X8872571Y-9845571D01*
X8872571Y-9845571D02*
X8786857Y-9817000D01*
X8786857Y-9817000D02*
X8729714Y-9759857D01*
X8729714Y-9759857D02*
X8701143Y-9702714D01*
X8701143Y-9702714D02*
X8672571Y-9588428D01*
X8672571Y-9588428D02*
X8672571Y-9502714D01*
X8672571Y-9502714D02*
X8701143Y-9388428D01*
X8701143Y-9388428D02*
X8729714Y-9331285D01*
X8729714Y-9331285D02*
X8786857Y-9274142D01*
X8786857Y-9274142D02*
X8872571Y-9245571D01*
X8872571Y-9245571D02*
X8929714Y-9245571D01*
X8929714Y-9245571D02*
X9015428Y-9274142D01*
X9015428Y-9274142D02*
X9044000Y-9302714D01*
X9586857Y-9245571D02*
X9301143Y-9245571D01*
X9301143Y-9245571D02*
X9272571Y-9531285D01*
X9272571Y-9531285D02*
X9301143Y-9502714D01*
X9301143Y-9502714D02*
X9358286Y-9474142D01*
X9358286Y-9474142D02*
X9501143Y-9474142D01*
X9501143Y-9474142D02*
X9558286Y-9502714D01*
X9558286Y-9502714D02*
X9586857Y-9531285D01*
X9586857Y-9531285D02*
X9615428Y-9588428D01*
X9615428Y-9588428D02*
X9615428Y-9731285D01*
X9615428Y-9731285D02*
X9586857Y-9788428D01*
X9586857Y-9788428D02*
X9558286Y-9817000D01*
X9558286Y-9817000D02*
X9501143Y-9845571D01*
X9501143Y-9845571D02*
X9358286Y-9845571D01*
X9358286Y-9845571D02*
X9301143Y-9817000D01*
X9301143Y-9817000D02*
X9272571Y-9788428D01*
X863571Y-9397942D02*
X1349285Y-9397942D01*
X1349285Y-9397942D02*
X1406428Y-9369371D01*
X1406428Y-9369371D02*
X1435000Y-9340800D01*
X1435000Y-9340800D02*
X1463571Y-9283657D01*
X1463571Y-9283657D02*
X1463571Y-9169371D01*
X1463571Y-9169371D02*
X1435000Y-9112228D01*
X1435000Y-9112228D02*
X1406428Y-9083657D01*
X1406428Y-9083657D02*
X1349285Y-9055085D01*
X1349285Y-9055085D02*
X863571Y-9055085D01*
X1463571Y-8455086D02*
X1463571Y-8797943D01*
X1463571Y-8626514D02*
X863571Y-8626514D01*
X863571Y-8626514D02*
X949285Y-8683657D01*
X949285Y-8683657D02*
X1006428Y-8740800D01*
X1006428Y-8740800D02*
X1035000Y-8797943D01*
X15214571Y-9347142D02*
X15700285Y-9347142D01*
X15700285Y-9347142D02*
X15757428Y-9318571D01*
X15757428Y-9318571D02*
X15786000Y-9290000D01*
X15786000Y-9290000D02*
X15814571Y-9232857D01*
X15814571Y-9232857D02*
X15814571Y-9118571D01*
X15814571Y-9118571D02*
X15786000Y-9061428D01*
X15786000Y-9061428D02*
X15757428Y-9032857D01*
X15757428Y-9032857D02*
X15700285Y-9004285D01*
X15700285Y-9004285D02*
X15214571Y-9004285D01*
X15271714Y-8747143D02*
X15243142Y-8718571D01*
X15243142Y-8718571D02*
X15214571Y-8661429D01*
X15214571Y-8661429D02*
X15214571Y-8518571D01*
X15214571Y-8518571D02*
X15243142Y-8461429D01*
X15243142Y-8461429D02*
X15271714Y-8432857D01*
X15271714Y-8432857D02*
X15328857Y-8404286D01*
X15328857Y-8404286D02*
X15386000Y-8404286D01*
X15386000Y-8404286D02*
X15471714Y-8432857D01*
X15471714Y-8432857D02*
X15814571Y-8775714D01*
X15814571Y-8775714D02*
X15814571Y-8404286D01*
X18811771Y-6475399D02*
X18526057Y-6675399D01*
X18811771Y-6818256D02*
X18211771Y-6818256D01*
X18211771Y-6818256D02*
X18211771Y-6589685D01*
X18211771Y-6589685D02*
X18240342Y-6532542D01*
X18240342Y-6532542D02*
X18268914Y-6503971D01*
X18268914Y-6503971D02*
X18326057Y-6475399D01*
X18326057Y-6475399D02*
X18411771Y-6475399D01*
X18411771Y-6475399D02*
X18468914Y-6503971D01*
X18468914Y-6503971D02*
X18497485Y-6532542D01*
X18497485Y-6532542D02*
X18526057Y-6589685D01*
X18526057Y-6589685D02*
X18526057Y-6818256D01*
X18411771Y-5961114D02*
X18811771Y-5961114D01*
X18183200Y-6103971D02*
X18611771Y-6246828D01*
X18611771Y-6246828D02*
X18611771Y-5875399D01*
X17426000Y-9743971D02*
X17226000Y-9458257D01*
X17083143Y-9743971D02*
X17083143Y-9143971D01*
X17083143Y-9143971D02*
X17311714Y-9143971D01*
X17311714Y-9143971D02*
X17368857Y-9172542D01*
X17368857Y-9172542D02*
X17397428Y-9201114D01*
X17397428Y-9201114D02*
X17426000Y-9258257D01*
X17426000Y-9258257D02*
X17426000Y-9343971D01*
X17426000Y-9343971D02*
X17397428Y-9401114D01*
X17397428Y-9401114D02*
X17368857Y-9429685D01*
X17368857Y-9429685D02*
X17311714Y-9458257D01*
X17311714Y-9458257D02*
X17083143Y-9458257D01*
X17626000Y-9143971D02*
X17997428Y-9143971D01*
X17997428Y-9143971D02*
X17797428Y-9372542D01*
X17797428Y-9372542D02*
X17883143Y-9372542D01*
X17883143Y-9372542D02*
X17940286Y-9401114D01*
X17940286Y-9401114D02*
X17968857Y-9429685D01*
X17968857Y-9429685D02*
X17997428Y-9486828D01*
X17997428Y-9486828D02*
X17997428Y-9629685D01*
X17997428Y-9629685D02*
X17968857Y-9686828D01*
X17968857Y-9686828D02*
X17940286Y-9715400D01*
X17940286Y-9715400D02*
X17883143Y-9743971D01*
X17883143Y-9743971D02*
X17711714Y-9743971D01*
X17711714Y-9743971D02*
X17654571Y-9715400D01*
X17654571Y-9715400D02*
X17626000Y-9686828D01*
X7520000Y-9312171D02*
X7320000Y-9026457D01*
X7177143Y-9312171D02*
X7177143Y-8712171D01*
X7177143Y-8712171D02*
X7405714Y-8712171D01*
X7405714Y-8712171D02*
X7462857Y-8740742D01*
X7462857Y-8740742D02*
X7491428Y-8769314D01*
X7491428Y-8769314D02*
X7520000Y-8826457D01*
X7520000Y-8826457D02*
X7520000Y-8912171D01*
X7520000Y-8912171D02*
X7491428Y-8969314D01*
X7491428Y-8969314D02*
X7462857Y-8997885D01*
X7462857Y-8997885D02*
X7405714Y-9026457D01*
X7405714Y-9026457D02*
X7177143Y-9026457D01*
X7748571Y-8769314D02*
X7777143Y-8740742D01*
X7777143Y-8740742D02*
X7834286Y-8712171D01*
X7834286Y-8712171D02*
X7977143Y-8712171D01*
X7977143Y-8712171D02*
X8034286Y-8740742D01*
X8034286Y-8740742D02*
X8062857Y-8769314D01*
X8062857Y-8769314D02*
X8091428Y-8826457D01*
X8091428Y-8826457D02*
X8091428Y-8883600D01*
X8091428Y-8883600D02*
X8062857Y-8969314D01*
X8062857Y-8969314D02*
X7720000Y-9312171D01*
X7720000Y-9312171D02*
X8091428Y-9312171D01*
X6173800Y-5476771D02*
X5973800Y-5191057D01*
X5830943Y-5476771D02*
X5830943Y-4876771D01*
X5830943Y-4876771D02*
X6059514Y-4876771D01*
X6059514Y-4876771D02*
X6116657Y-4905342D01*
X6116657Y-4905342D02*
X6145228Y-4933914D01*
X6145228Y-4933914D02*
X6173800Y-4991057D01*
X6173800Y-4991057D02*
X6173800Y-5076771D01*
X6173800Y-5076771D02*
X6145228Y-5133914D01*
X6145228Y-5133914D02*
X6116657Y-5162485D01*
X6116657Y-5162485D02*
X6059514Y-5191057D01*
X6059514Y-5191057D02*
X5830943Y-5191057D01*
X6745228Y-5476771D02*
X6402371Y-5476771D01*
X6573800Y-5476771D02*
X6573800Y-4876771D01*
X6573800Y-4876771D02*
X6516657Y-4962485D01*
X6516657Y-4962485D02*
X6459514Y-5019628D01*
X6459514Y-5019628D02*
X6402371Y-5048200D01*
X7227943Y-8092971D02*
X7227943Y-7492971D01*
X7227943Y-7492971D02*
X7370800Y-7492971D01*
X7370800Y-7492971D02*
X7456514Y-7521542D01*
X7456514Y-7521542D02*
X7513657Y-7578685D01*
X7513657Y-7578685D02*
X7542228Y-7635828D01*
X7542228Y-7635828D02*
X7570800Y-7750114D01*
X7570800Y-7750114D02*
X7570800Y-7835828D01*
X7570800Y-7835828D02*
X7542228Y-7950114D01*
X7542228Y-7950114D02*
X7513657Y-8007257D01*
X7513657Y-8007257D02*
X7456514Y-8064400D01*
X7456514Y-8064400D02*
X7370800Y-8092971D01*
X7370800Y-8092971D02*
X7227943Y-8092971D01*
X8142228Y-8092971D02*
X7799371Y-8092971D01*
X7970800Y-8092971D02*
X7970800Y-7492971D01*
X7970800Y-7492971D02*
X7913657Y-7578685D01*
X7913657Y-7578685D02*
X7856514Y-7635828D01*
X7856514Y-7635828D02*
X7799371Y-7664400D01*
X17459228Y-5687999D02*
X17487800Y-5716571D01*
X17487800Y-5716571D02*
X17516371Y-5802285D01*
X17516371Y-5802285D02*
X17516371Y-5859428D01*
X17516371Y-5859428D02*
X17487800Y-5945142D01*
X17487800Y-5945142D02*
X17430657Y-6002285D01*
X17430657Y-6002285D02*
X17373514Y-6030856D01*
X17373514Y-6030856D02*
X17259228Y-6059428D01*
X17259228Y-6059428D02*
X17173514Y-6059428D01*
X17173514Y-6059428D02*
X17059228Y-6030856D01*
X17059228Y-6030856D02*
X17002085Y-6002285D01*
X17002085Y-6002285D02*
X16944942Y-5945142D01*
X16944942Y-5945142D02*
X16916371Y-5859428D01*
X16916371Y-5859428D02*
X16916371Y-5802285D01*
X16916371Y-5802285D02*
X16944942Y-5716571D01*
X16944942Y-5716571D02*
X16973514Y-5687999D01*
X17116371Y-5173714D02*
X17516371Y-5173714D01*
X16887800Y-5316571D02*
X17316371Y-5459428D01*
X17316371Y-5459428D02*
X17316371Y-5087999D01*
X10829828Y-5840399D02*
X10858400Y-5868971D01*
X10858400Y-5868971D02*
X10886971Y-5954685D01*
X10886971Y-5954685D02*
X10886971Y-6011828D01*
X10886971Y-6011828D02*
X10858400Y-6097542D01*
X10858400Y-6097542D02*
X10801257Y-6154685D01*
X10801257Y-6154685D02*
X10744114Y-6183256D01*
X10744114Y-6183256D02*
X10629828Y-6211828D01*
X10629828Y-6211828D02*
X10544114Y-6211828D01*
X10544114Y-6211828D02*
X10429828Y-6183256D01*
X10429828Y-6183256D02*
X10372685Y-6154685D01*
X10372685Y-6154685D02*
X10315542Y-6097542D01*
X10315542Y-6097542D02*
X10286971Y-6011828D01*
X10286971Y-6011828D02*
X10286971Y-5954685D01*
X10286971Y-5954685D02*
X10315542Y-5868971D01*
X10315542Y-5868971D02*
X10344114Y-5840399D01*
X10286971Y-5640399D02*
X10286971Y-5268971D01*
X10286971Y-5268971D02*
X10515542Y-5468971D01*
X10515542Y-5468971D02*
X10515542Y-5383256D01*
X10515542Y-5383256D02*
X10544114Y-5326114D01*
X10544114Y-5326114D02*
X10572685Y-5297542D01*
X10572685Y-5297542D02*
X10629828Y-5268971D01*
X10629828Y-5268971D02*
X10772685Y-5268971D01*
X10772685Y-5268971D02*
X10829828Y-5297542D01*
X10829828Y-5297542D02*
X10858400Y-5326114D01*
X10858400Y-5326114D02*
X10886971Y-5383256D01*
X10886971Y-5383256D02*
X10886971Y-5554685D01*
X10886971Y-5554685D02*
X10858400Y-5611828D01*
X10858400Y-5611828D02*
X10829828Y-5640399D01*
X8434400Y-6765828D02*
X8405828Y-6794400D01*
X8405828Y-6794400D02*
X8320114Y-6822971D01*
X8320114Y-6822971D02*
X8262971Y-6822971D01*
X8262971Y-6822971D02*
X8177257Y-6794400D01*
X8177257Y-6794400D02*
X8120114Y-6737257D01*
X8120114Y-6737257D02*
X8091543Y-6680114D01*
X8091543Y-6680114D02*
X8062971Y-6565828D01*
X8062971Y-6565828D02*
X8062971Y-6480114D01*
X8062971Y-6480114D02*
X8091543Y-6365828D01*
X8091543Y-6365828D02*
X8120114Y-6308685D01*
X8120114Y-6308685D02*
X8177257Y-6251542D01*
X8177257Y-6251542D02*
X8262971Y-6222971D01*
X8262971Y-6222971D02*
X8320114Y-6222971D01*
X8320114Y-6222971D02*
X8405828Y-6251542D01*
X8405828Y-6251542D02*
X8434400Y-6280114D01*
X8662971Y-6280114D02*
X8691543Y-6251542D01*
X8691543Y-6251542D02*
X8748686Y-6222971D01*
X8748686Y-6222971D02*
X8891543Y-6222971D01*
X8891543Y-6222971D02*
X8948686Y-6251542D01*
X8948686Y-6251542D02*
X8977257Y-6280114D01*
X8977257Y-6280114D02*
X9005828Y-6337257D01*
X9005828Y-6337257D02*
X9005828Y-6394400D01*
X9005828Y-6394400D02*
X8977257Y-6480114D01*
X8977257Y-6480114D02*
X8634400Y-6822971D01*
X8634400Y-6822971D02*
X9005828Y-6822971D01*
X822228Y-5154599D02*
X850800Y-5183171D01*
X850800Y-5183171D02*
X879371Y-5268885D01*
X879371Y-5268885D02*
X879371Y-5326028D01*
X879371Y-5326028D02*
X850800Y-5411742D01*
X850800Y-5411742D02*
X793657Y-5468885D01*
X793657Y-5468885D02*
X736514Y-5497456D01*
X736514Y-5497456D02*
X622228Y-5526028D01*
X622228Y-5526028D02*
X536514Y-5526028D01*
X536514Y-5526028D02*
X422228Y-5497456D01*
X422228Y-5497456D02*
X365085Y-5468885D01*
X365085Y-5468885D02*
X307942Y-5411742D01*
X307942Y-5411742D02*
X279371Y-5326028D01*
X279371Y-5326028D02*
X279371Y-5268885D01*
X279371Y-5268885D02*
X307942Y-5183171D01*
X307942Y-5183171D02*
X336514Y-5154599D01*
X879371Y-4583171D02*
X879371Y-4926028D01*
X879371Y-4754599D02*
X279371Y-4754599D01*
X279371Y-4754599D02*
X365085Y-4811742D01*
X365085Y-4811742D02*
X422228Y-4868885D01*
X422228Y-4868885D02*
X450800Y-4926028D01*
D11*
%TO.C,L1*%
X13113000Y-330200D02*
X17113000Y-330200D01*
X17113000Y-4495800D02*
X13113000Y-4495800D01*
D12*
%TO.C,C5*%
X9504000Y-8263836D02*
X9504000Y-8048164D01*
X8784000Y-8263836D02*
X8784000Y-8048164D01*
D13*
%TO.C,U1*%
X4735000Y-8166000D02*
X4735000Y-6566000D01*
X1615000Y-6566000D02*
X1615000Y-8166000D01*
D11*
X2325000Y-9866000D02*
G75*
G03*
X2125000Y-9866000I-100000J0D01*
G01*
X2125000Y-9866000D02*
G75*
G03*
X2325000Y-9866000I100000J0D01*
G01*
D12*
%TO.C,J3*%
X20542000Y-5166000D02*
X19392000Y-5166000D01*
X20542000Y-946000D02*
X19392000Y-946000D01*
X19392000Y-946000D02*
X19392000Y-1996000D01*
X22512000Y-2116000D02*
X22512000Y-3996000D01*
X19392000Y-1996000D02*
X18402000Y-1996000D01*
X19392000Y-5166000D02*
X19392000Y-4116000D01*
%TO.C,J2*%
X4785000Y-2318000D02*
X4785000Y-3468000D01*
X565000Y-2318000D02*
X565000Y-3468000D01*
X565000Y-3468000D02*
X1615000Y-3468000D01*
X1735000Y-348000D02*
X3615000Y-348000D01*
X1615000Y-3468000D02*
X1615000Y-4458000D01*
X4785000Y-3468000D02*
X3735000Y-3468000D01*
%TO.C,U2*%
X11775000Y-7366000D02*
X11775000Y-6566000D01*
X14895000Y-7366000D02*
X14895000Y-5566000D01*
X14895000Y-7366000D02*
X14895000Y-8166000D01*
X11775000Y-7366000D02*
X11775000Y-8166000D01*
%TO.C,R4*%
X18162000Y-8154641D02*
X18162000Y-7847359D01*
X18922000Y-8154641D02*
X18922000Y-7847359D01*
%TO.C,R3*%
X17146000Y-8154641D02*
X17146000Y-7847359D01*
X17906000Y-8154641D02*
X17906000Y-7847359D01*
%TO.C,R2*%
X6249641Y-8254000D02*
X5942359Y-8254000D01*
X6249641Y-7494000D02*
X5942359Y-7494000D01*
%TO.C,R1*%
X5688359Y-5716000D02*
X5995641Y-5716000D01*
X5688359Y-6476000D02*
X5995641Y-6476000D01*
%TO.C,J1*%
X7441000Y-3468000D02*
X7441000Y-4458000D01*
X11611000Y-3468000D02*
X10561000Y-3468000D01*
X6391000Y-2318000D02*
X6391000Y-3468000D01*
X6391000Y-3468000D02*
X7441000Y-3468000D01*
X11611000Y-2318000D02*
X11611000Y-3468000D01*
X7561000Y-348000D02*
X10441000Y-348000D01*
D14*
%TO.C,D1*%
X5056000Y-9017000D02*
G75*
G03*
X4956000Y-9017000I-50000J0D01*
G01*
X4956000Y-9017000D02*
G75*
G03*
X5056000Y-9017000I50000J0D01*
G01*
D12*
%TO.C,C4*%
X15492000Y-6590420D02*
X15492000Y-6871580D01*
X16512000Y-6590420D02*
X16512000Y-6871580D01*
%TO.C,C3*%
X11051000Y-8014580D02*
X11051000Y-7733420D01*
X10031000Y-8014580D02*
X10031000Y-7733420D01*
%TO.C,C2*%
X8401164Y-5948000D02*
X8616836Y-5948000D01*
X8401164Y-5228000D02*
X8616836Y-5228000D01*
%TO.C,C1*%
X275000Y-6496164D02*
X275000Y-6711836D01*
X995000Y-6496164D02*
X995000Y-6711836D01*
%TD*%
%LPC*%
D15*
%TO.C,L1*%
X13588000Y-2413000D03*
X16638000Y-2413000D03*
%TD*%
D16*
%TO.C,C5*%
X9144000Y-8636000D03*
X9144000Y-7676000D03*
%TD*%
D17*
%TO.C,U1*%
X2225000Y-8621000D03*
X3175000Y-8621000D03*
X4125000Y-8621000D03*
X4125000Y-6111000D03*
X3175000Y-6111000D03*
X2225000Y-6111000D03*
%TD*%
D18*
%TO.C,J3*%
X19177000Y-2556000D03*
X19177000Y-3556000D03*
D19*
X21702000Y-1256000D03*
X21702000Y-4856000D03*
%TD*%
D20*
%TO.C,J2*%
X2175000Y-3683000D03*
X3175000Y-3683000D03*
D21*
X875000Y-1158000D03*
X4475000Y-1158000D03*
%TD*%
D22*
%TO.C,U2*%
X14285000Y-6228500D03*
X13335000Y-6228500D03*
X12385000Y-6228500D03*
X12385000Y-8503500D03*
X14285000Y-8503500D03*
%TD*%
D23*
%TO.C,R4*%
X18542000Y-8511000D03*
X18542000Y-7491000D03*
%TD*%
%TO.C,R3*%
X17526000Y-8511000D03*
X17526000Y-7491000D03*
%TD*%
D24*
%TO.C,R2*%
X6606000Y-7874000D03*
X5586000Y-7874000D03*
%TD*%
D25*
%TO.C,R1*%
X5332000Y-6096000D03*
X6352000Y-6096000D03*
%TD*%
D20*
%TO.C,J1*%
X8001000Y-3683000D03*
X9001000Y-3683000D03*
X10001000Y-3683000D03*
D21*
X6701000Y-1158000D03*
X11301000Y-1158000D03*
%TD*%
D26*
%TO.C,D1*%
X5611000Y-9017000D03*
X6581000Y-9017000D03*
%TD*%
D27*
%TO.C,C4*%
X16002000Y-5956000D03*
X16002000Y-7506000D03*
%TD*%
D28*
%TO.C,C3*%
X10541000Y-8649000D03*
X10541000Y-7099000D03*
%TD*%
D29*
%TO.C,C2*%
X8029000Y-5588000D03*
X8989000Y-5588000D03*
%TD*%
D30*
%TO.C,C1*%
X635000Y-6124000D03*
X635000Y-7084000D03*
%TD*%
%LPD*%
M02*
