%TF.GenerationSoftware,KiCad,Pcbnew,7.0.10*%
%TF.CreationDate,2024-01-27T16:24:37+01:00*%
%TF.ProjectId,Mouse_charger,4d6f7573-655f-4636-9861-726765722e6b,rev?*%
%TF.SameCoordinates,Original*%
%TF.FileFunction,Paste,Top*%
%TF.FilePolarity,Positive*%
%FSLAX46Y46*%
G04 Gerber Fmt 4.6, Leading zero omitted, Abs format (unit mm)*
G04 Created by KiCad (PCBNEW 7.0.10) date 2024-01-27 16:24:37*
%MOMM*%
%LPD*%
G01*
G04 APERTURE LIST*
G04 Aperture macros list*
%AMRoundRect*
0 Rectangle with rounded corners*
0 $1 Rounding radius*
0 $2 $3 $4 $5 $6 $7 $8 $9 X,Y pos of 4 corners*
0 Add a 4 corners polygon primitive as box body*
4,1,4,$2,$3,$4,$5,$6,$7,$8,$9,$2,$3,0*
0 Add four circle primitives for the rounded corners*
1,1,$1+$1,$2,$3*
1,1,$1+$1,$4,$5*
1,1,$1+$1,$6,$7*
1,1,$1+$1,$8,$9*
0 Add four rect primitives between the rounded corners*
20,1,$1+$1,$2,$3,$4,$5,0*
20,1,$1+$1,$4,$5,$6,$7,0*
20,1,$1+$1,$6,$7,$8,$9,0*
20,1,$1+$1,$8,$9,$2,$3,0*%
G04 Aperture macros list end*
%ADD10R,1.500000X3.600000*%
%ADD11RoundRect,0.140000X0.170000X-0.140000X0.170000X0.140000X-0.170000X0.140000X-0.170000X-0.140000X0*%
%ADD12RoundRect,0.040600X0.249400X-0.564400X0.249400X0.564400X-0.249400X0.564400X-0.249400X-0.564400X0*%
%ADD13RoundRect,0.150000X-0.625000X0.150000X-0.625000X-0.150000X0.625000X-0.150000X0.625000X0.150000X0*%
%ADD14RoundRect,0.250000X-0.650000X0.350000X-0.650000X-0.350000X0.650000X-0.350000X0.650000X0.350000X0*%
%ADD15RoundRect,0.150000X-0.150000X-0.625000X0.150000X-0.625000X0.150000X0.625000X-0.150000X0.625000X0*%
%ADD16RoundRect,0.250000X-0.350000X-0.650000X0.350000X-0.650000X0.350000X0.650000X-0.350000X0.650000X0*%
%ADD17RoundRect,0.150000X-0.150000X0.512500X-0.150000X-0.512500X0.150000X-0.512500X0.150000X0.512500X0*%
%ADD18RoundRect,0.135000X0.185000X-0.135000X0.185000X0.135000X-0.185000X0.135000X-0.185000X-0.135000X0*%
%ADD19RoundRect,0.135000X0.135000X0.185000X-0.135000X0.185000X-0.135000X-0.185000X0.135000X-0.185000X0*%
%ADD20RoundRect,0.135000X-0.135000X-0.185000X0.135000X-0.185000X0.135000X0.185000X-0.135000X0.185000X0*%
%ADD21RoundRect,0.147500X-0.147500X-0.172500X0.147500X-0.172500X0.147500X0.172500X-0.147500X0.172500X0*%
%ADD22RoundRect,0.225000X-0.250000X0.225000X-0.250000X-0.225000X0.250000X-0.225000X0.250000X0.225000X0*%
%ADD23RoundRect,0.225000X0.250000X-0.225000X0.250000X0.225000X-0.250000X0.225000X-0.250000X-0.225000X0*%
%ADD24RoundRect,0.140000X-0.140000X-0.170000X0.140000X-0.170000X0.140000X0.170000X-0.140000X0.170000X0*%
%ADD25RoundRect,0.140000X-0.170000X0.140000X-0.170000X-0.140000X0.170000X-0.140000X0.170000X0.140000X0*%
G04 APERTURE END LIST*
D10*
%TO.C,L1*%
X13588000Y-2413000D03*
X16638000Y-2413000D03*
%TD*%
D11*
%TO.C,C5*%
X9144000Y-8636000D03*
X9144000Y-7676000D03*
%TD*%
D12*
%TO.C,U1*%
X2225000Y-8621000D03*
X3175000Y-8621000D03*
X4125000Y-8621000D03*
X4125000Y-6111000D03*
X3175000Y-6111000D03*
X2225000Y-6111000D03*
%TD*%
D13*
%TO.C,J3*%
X19177000Y-2556000D03*
X19177000Y-3556000D03*
D14*
X21702000Y-1256000D03*
X21702000Y-4856000D03*
%TD*%
D15*
%TO.C,J2*%
X2175000Y-3683000D03*
X3175000Y-3683000D03*
D16*
X875000Y-1158000D03*
X4475000Y-1158000D03*
%TD*%
D17*
%TO.C,U2*%
X14285000Y-6228500D03*
X13335000Y-6228500D03*
X12385000Y-6228500D03*
X12385000Y-8503500D03*
X14285000Y-8503500D03*
%TD*%
D18*
%TO.C,R4*%
X18542000Y-8511000D03*
X18542000Y-7491000D03*
%TD*%
%TO.C,R3*%
X17526000Y-8511000D03*
X17526000Y-7491000D03*
%TD*%
D19*
%TO.C,R2*%
X6606000Y-7874000D03*
X5586000Y-7874000D03*
%TD*%
D20*
%TO.C,R1*%
X5332000Y-6096000D03*
X6352000Y-6096000D03*
%TD*%
D15*
%TO.C,J1*%
X8001000Y-3683000D03*
X9001000Y-3683000D03*
X10001000Y-3683000D03*
D16*
X6701000Y-1158000D03*
X11301000Y-1158000D03*
%TD*%
D21*
%TO.C,D1*%
X5611000Y-9017000D03*
X6581000Y-9017000D03*
%TD*%
D22*
%TO.C,C4*%
X16002000Y-5956000D03*
X16002000Y-7506000D03*
%TD*%
D23*
%TO.C,C3*%
X10541000Y-8649000D03*
X10541000Y-7099000D03*
%TD*%
D24*
%TO.C,C2*%
X8029000Y-5588000D03*
X8989000Y-5588000D03*
%TD*%
D25*
%TO.C,C1*%
X635000Y-6124000D03*
X635000Y-7084000D03*
%TD*%
M02*
