%TF.GenerationSoftware,KiCad,Pcbnew,7.0.10*%
%TF.CreationDate,2024-01-27T16:24:37+01:00*%
%TF.ProjectId,Mouse_charger,4d6f7573-655f-4636-9861-726765722e6b,rev?*%
%TF.SameCoordinates,Original*%
%TF.FileFunction,Copper,L1,Top*%
%TF.FilePolarity,Positive*%
%FSLAX46Y46*%
G04 Gerber Fmt 4.6, Leading zero omitted, Abs format (unit mm)*
G04 Created by KiCad (PCBNEW 7.0.10) date 2024-01-27 16:24:37*
%MOMM*%
%LPD*%
G01*
G04 APERTURE LIST*
G04 Aperture macros list*
%AMRoundRect*
0 Rectangle with rounded corners*
0 $1 Rounding radius*
0 $2 $3 $4 $5 $6 $7 $8 $9 X,Y pos of 4 corners*
0 Add a 4 corners polygon primitive as box body*
4,1,4,$2,$3,$4,$5,$6,$7,$8,$9,$2,$3,0*
0 Add four circle primitives for the rounded corners*
1,1,$1+$1,$2,$3*
1,1,$1+$1,$4,$5*
1,1,$1+$1,$6,$7*
1,1,$1+$1,$8,$9*
0 Add four rect primitives between the rounded corners*
20,1,$1+$1,$2,$3,$4,$5,0*
20,1,$1+$1,$4,$5,$6,$7,0*
20,1,$1+$1,$6,$7,$8,$9,0*
20,1,$1+$1,$8,$9,$2,$3,0*%
G04 Aperture macros list end*
%TA.AperFunction,SMDPad,CuDef*%
%ADD10R,1.500000X3.600000*%
%TD*%
%TA.AperFunction,SMDPad,CuDef*%
%ADD11RoundRect,0.140000X0.170000X-0.140000X0.170000X0.140000X-0.170000X0.140000X-0.170000X-0.140000X0*%
%TD*%
%TA.AperFunction,SMDPad,CuDef*%
%ADD12RoundRect,0.040600X0.249400X-0.564400X0.249400X0.564400X-0.249400X0.564400X-0.249400X-0.564400X0*%
%TD*%
%TA.AperFunction,SMDPad,CuDef*%
%ADD13RoundRect,0.150000X-0.625000X0.150000X-0.625000X-0.150000X0.625000X-0.150000X0.625000X0.150000X0*%
%TD*%
%TA.AperFunction,SMDPad,CuDef*%
%ADD14RoundRect,0.250000X-0.650000X0.350000X-0.650000X-0.350000X0.650000X-0.350000X0.650000X0.350000X0*%
%TD*%
%TA.AperFunction,SMDPad,CuDef*%
%ADD15RoundRect,0.150000X-0.150000X-0.625000X0.150000X-0.625000X0.150000X0.625000X-0.150000X0.625000X0*%
%TD*%
%TA.AperFunction,SMDPad,CuDef*%
%ADD16RoundRect,0.250000X-0.350000X-0.650000X0.350000X-0.650000X0.350000X0.650000X-0.350000X0.650000X0*%
%TD*%
%TA.AperFunction,SMDPad,CuDef*%
%ADD17RoundRect,0.150000X-0.150000X0.512500X-0.150000X-0.512500X0.150000X-0.512500X0.150000X0.512500X0*%
%TD*%
%TA.AperFunction,SMDPad,CuDef*%
%ADD18RoundRect,0.135000X0.185000X-0.135000X0.185000X0.135000X-0.185000X0.135000X-0.185000X-0.135000X0*%
%TD*%
%TA.AperFunction,SMDPad,CuDef*%
%ADD19RoundRect,0.135000X0.135000X0.185000X-0.135000X0.185000X-0.135000X-0.185000X0.135000X-0.185000X0*%
%TD*%
%TA.AperFunction,SMDPad,CuDef*%
%ADD20RoundRect,0.135000X-0.135000X-0.185000X0.135000X-0.185000X0.135000X0.185000X-0.135000X0.185000X0*%
%TD*%
%TA.AperFunction,SMDPad,CuDef*%
%ADD21RoundRect,0.147500X-0.147500X-0.172500X0.147500X-0.172500X0.147500X0.172500X-0.147500X0.172500X0*%
%TD*%
%TA.AperFunction,SMDPad,CuDef*%
%ADD22RoundRect,0.225000X-0.250000X0.225000X-0.250000X-0.225000X0.250000X-0.225000X0.250000X0.225000X0*%
%TD*%
%TA.AperFunction,SMDPad,CuDef*%
%ADD23RoundRect,0.225000X0.250000X-0.225000X0.250000X0.225000X-0.250000X0.225000X-0.250000X-0.225000X0*%
%TD*%
%TA.AperFunction,SMDPad,CuDef*%
%ADD24RoundRect,0.140000X-0.140000X-0.170000X0.140000X-0.170000X0.140000X0.170000X-0.140000X0.170000X0*%
%TD*%
%TA.AperFunction,SMDPad,CuDef*%
%ADD25RoundRect,0.140000X-0.170000X0.140000X-0.170000X-0.140000X0.170000X-0.140000X0.170000X0.140000X0*%
%TD*%
%TA.AperFunction,ViaPad*%
%ADD26C,0.600000*%
%TD*%
%TA.AperFunction,Conductor*%
%ADD27C,0.254000*%
%TD*%
%TA.AperFunction,Conductor*%
%ADD28C,0.400000*%
%TD*%
%TA.AperFunction,Conductor*%
%ADD29C,0.508000*%
%TD*%
%TA.AperFunction,Conductor*%
%ADD30C,0.762000*%
%TD*%
G04 APERTURE END LIST*
D10*
%TO.P,L1,1,1*%
%TO.N,Net-(U2-SW)*%
X13588000Y-2413000D03*
%TO.P,L1,2,2*%
%TO.N,VCC*%
X16638000Y-2413000D03*
%TD*%
D11*
%TO.P,C5,1*%
%TO.N,+BATT*%
X9144000Y-8636000D03*
%TO.P,C5,2*%
%TO.N,GND*%
X9144000Y-7676000D03*
%TD*%
D12*
%TO.P,U1,1,TS*%
%TO.N,/TEMP*%
X2225000Y-8621000D03*
%TO.P,U1,2,OUT*%
%TO.N,+BATT*%
X3175000Y-8621000D03*
%TO.P,U1,3,~{CHG}*%
%TO.N,Net-(D1-K)*%
X4125000Y-8621000D03*
%TO.P,U1,4,ISET*%
%TO.N,Net-(U1-ISET)*%
X4125000Y-6111000D03*
%TO.P,U1,5,GND*%
%TO.N,GND*%
X3175000Y-6111000D03*
%TO.P,U1,6,VIN*%
%TO.N,VBUS*%
X2225000Y-6111000D03*
%TD*%
D13*
%TO.P,J3,1,Pin_1*%
%TO.N,VCC*%
X19177000Y-2556000D03*
%TO.P,J3,2,Pin_2*%
%TO.N,GND*%
X19177000Y-3556000D03*
D14*
%TO.P,J3,MP*%
%TO.N,N/C*%
X21702000Y-1256000D03*
X21702000Y-4856000D03*
%TD*%
D15*
%TO.P,J2,1,Pin_1*%
%TO.N,VBUS*%
X2175000Y-3683000D03*
%TO.P,J2,2,Pin_2*%
%TO.N,GND*%
X3175000Y-3683000D03*
D16*
%TO.P,J2,MP*%
%TO.N,N/C*%
X875000Y-1158000D03*
X4475000Y-1158000D03*
%TD*%
D17*
%TO.P,U2,1,EN*%
%TO.N,+BATT*%
X14285000Y-6228500D03*
%TO.P,U2,2,GND*%
%TO.N,GND*%
X13335000Y-6228500D03*
%TO.P,U2,3,SW*%
%TO.N,Net-(U2-SW)*%
X12385000Y-6228500D03*
%TO.P,U2,4,VIN*%
%TO.N,+BATT*%
X12385000Y-8503500D03*
%TO.P,U2,5,FB*%
%TO.N,Net-(U2-FB)*%
X14285000Y-8503500D03*
%TD*%
D18*
%TO.P,R4,1*%
%TO.N,Net-(U2-FB)*%
X18542000Y-8511000D03*
%TO.P,R4,2*%
%TO.N,GND*%
X18542000Y-7491000D03*
%TD*%
%TO.P,R3,1*%
%TO.N,Net-(U2-FB)*%
X17526000Y-8511000D03*
%TO.P,R3,2*%
%TO.N,VCC*%
X17526000Y-7491000D03*
%TD*%
D19*
%TO.P,R2,1*%
%TO.N,+BATT*%
X6606000Y-7874000D03*
%TO.P,R2,2*%
%TO.N,Net-(D1-A)*%
X5586000Y-7874000D03*
%TD*%
D20*
%TO.P,R1,1*%
%TO.N,Net-(U1-ISET)*%
X5332000Y-6096000D03*
%TO.P,R1,2*%
%TO.N,GND*%
X6352000Y-6096000D03*
%TD*%
D15*
%TO.P,J1,1,Pin_1*%
%TO.N,+BATT*%
X8001000Y-3683000D03*
%TO.P,J1,2,Pin_2*%
%TO.N,/TEMP*%
X9001000Y-3683000D03*
%TO.P,J1,3,Pin_3*%
%TO.N,GND*%
X10001000Y-3683000D03*
D16*
%TO.P,J1,MP*%
%TO.N,N/C*%
X6701000Y-1158000D03*
X11301000Y-1158000D03*
%TD*%
D21*
%TO.P,D1,1,K*%
%TO.N,Net-(D1-K)*%
X5611000Y-9017000D03*
%TO.P,D1,2,A*%
%TO.N,Net-(D1-A)*%
X6581000Y-9017000D03*
%TD*%
D22*
%TO.P,C4,1*%
%TO.N,VCC*%
X16002000Y-5956000D03*
%TO.P,C4,2*%
%TO.N,GND*%
X16002000Y-7506000D03*
%TD*%
D23*
%TO.P,C3,1*%
%TO.N,+BATT*%
X10541000Y-8649000D03*
%TO.P,C3,2*%
%TO.N,GND*%
X10541000Y-7099000D03*
%TD*%
D24*
%TO.P,C2,1*%
%TO.N,+BATT*%
X8029000Y-5588000D03*
%TO.P,C2,2*%
%TO.N,GND*%
X8989000Y-5588000D03*
%TD*%
D25*
%TO.P,C1,1*%
%TO.N,VBUS*%
X635000Y-6124000D03*
%TO.P,C1,2*%
%TO.N,GND*%
X635000Y-7084000D03*
%TD*%
D26*
%TO.N,GND*%
X2667000Y-2133600D03*
X9169400Y-9550400D03*
X20040600Y-6070600D03*
X19888200Y-4775200D03*
X5486400Y-2768600D03*
X736600Y-4953000D03*
X1701800Y-7340600D03*
X14909800Y-7315200D03*
X22453600Y-9550400D03*
X19227800Y-9448800D03*
X17526000Y-9499600D03*
X22275800Y-6350000D03*
X18694400Y-6223000D03*
X21666200Y-2870200D03*
X5461000Y-4749800D03*
X10464800Y-5486400D03*
X11430000Y-3479800D03*
X9753600Y-1016000D03*
X8128000Y-914400D03*
X6299200Y-3733800D03*
X19481800Y-7213600D03*
X18465800Y-4800600D03*
X14732000Y-5003800D03*
X16103600Y-9499600D03*
X13360400Y-9525000D03*
X7721600Y-9550400D03*
X457200Y-9525000D03*
X736600Y-3733800D03*
X4495800Y-3683000D03*
X2667000Y-1193800D03*
%TO.N,/TEMP*%
X1016000Y-8636000D03*
X9017000Y-2159000D03*
%TD*%
D27*
%TO.N,Net-(D1-A)*%
X6581000Y-8867000D02*
X6581000Y-9017000D01*
X5588000Y-7874000D02*
X6581000Y-8867000D01*
X5586000Y-7874000D02*
X5588000Y-7874000D01*
%TO.N,+BATT*%
X13843000Y-7493000D02*
X14285000Y-7051000D01*
X14285000Y-7051000D02*
X14285000Y-6228500D01*
X12700000Y-7493000D02*
X13843000Y-7493000D01*
X12385000Y-7808000D02*
X12700000Y-7493000D01*
X12385000Y-8503500D02*
X12385000Y-7808000D01*
D28*
%TO.N,/TEMP*%
X9017000Y-3667000D02*
X9001000Y-3683000D01*
X9017000Y-2159000D02*
X9017000Y-3667000D01*
X1031000Y-8621000D02*
X1016000Y-8636000D01*
X2225000Y-8621000D02*
X1031000Y-8621000D01*
%TO.N,+BATT*%
X8001000Y-5560000D02*
X8029000Y-5588000D01*
X8001000Y-3683000D02*
X8001000Y-5560000D01*
D29*
X7620000Y-7874000D02*
X7620000Y-7112000D01*
X8382000Y-8636000D02*
X7620000Y-7874000D01*
X9144000Y-8636000D02*
X8382000Y-8636000D01*
D28*
X6606000Y-7874000D02*
X6606000Y-7114000D01*
X6606000Y-7114000D02*
X6604000Y-7112000D01*
X6604000Y-7112000D02*
X7620000Y-7112000D01*
X4953000Y-7112000D02*
X6604000Y-7112000D01*
X4699000Y-7366000D02*
X4953000Y-7112000D01*
X7620000Y-7112000D02*
X8029000Y-6703000D01*
X8029000Y-6703000D02*
X8029000Y-5588000D01*
X3429000Y-7366000D02*
X4699000Y-7366000D01*
X3175000Y-7620000D02*
X3429000Y-7366000D01*
X3175000Y-8621000D02*
X3175000Y-7620000D01*
%TO.N,VCC*%
X17005000Y-5956000D02*
X16002000Y-5956000D01*
X17526000Y-6477000D02*
X17005000Y-5956000D01*
X17526000Y-7491000D02*
X17526000Y-6477000D01*
%TO.N,Net-(U2-FB)*%
X17526000Y-8511000D02*
X18542000Y-8511000D01*
X17518500Y-8503500D02*
X17526000Y-8511000D01*
X14285000Y-8503500D02*
X17518500Y-8503500D01*
D30*
%TO.N,+BATT*%
X12239500Y-8649000D02*
X12385000Y-8503500D01*
X10541000Y-8649000D02*
X12239500Y-8649000D01*
D29*
X10528000Y-8636000D02*
X10541000Y-8649000D01*
X9144000Y-8636000D02*
X10528000Y-8636000D01*
%TO.N,Net-(D1-K)*%
X4953000Y-9017000D02*
X5611000Y-9017000D01*
X4125000Y-8621000D02*
X4557000Y-8621000D01*
X4557000Y-8621000D02*
X4953000Y-9017000D01*
%TO.N,Net-(U1-ISET)*%
X5317000Y-6111000D02*
X5332000Y-6096000D01*
X4125000Y-6111000D02*
X5317000Y-6111000D01*
%TO.N,VBUS*%
X2212000Y-6124000D02*
X2225000Y-6111000D01*
X635000Y-6124000D02*
X2212000Y-6124000D01*
X2175000Y-6061000D02*
X2225000Y-6111000D01*
X2175000Y-3683000D02*
X2175000Y-6061000D01*
%TD*%
%TA.AperFunction,Conductor*%
%TO.N,Net-(U2-SW)*%
G36*
X14802039Y-400685D02*
G01*
X14847794Y-453489D01*
X14859000Y-505000D01*
X14859000Y-4297140D01*
X14839315Y-4364179D01*
X14786511Y-4409934D01*
X14736550Y-4421130D01*
X12827000Y-4444999D01*
X12827000Y-5497856D01*
X12813485Y-5554150D01*
X12795503Y-5589441D01*
X12795500Y-5589450D01*
X12780500Y-5684160D01*
X12780500Y-6772839D01*
X12795500Y-6867551D01*
X12795501Y-6867554D01*
X12795502Y-6867555D01*
X12813485Y-6902848D01*
X12827000Y-6959141D01*
X12827000Y-6983213D01*
X12807315Y-7050252D01*
X12754511Y-7096007D01*
X12718340Y-7106261D01*
X12702593Y-7108224D01*
X12683948Y-7110548D01*
X12668612Y-7111500D01*
X12668387Y-7111500D01*
X12667470Y-7111576D01*
X12657228Y-7112000D01*
X11935000Y-7112000D01*
X11867961Y-7092315D01*
X11822206Y-7039511D01*
X11811000Y-6988000D01*
X11811000Y-4166162D01*
X11830685Y-4099123D01*
X11847319Y-4078481D01*
X12446000Y-3479800D01*
X12446000Y-505000D01*
X12465685Y-437961D01*
X12518489Y-392206D01*
X12570000Y-381000D01*
X14735000Y-381000D01*
X14802039Y-400685D01*
G37*
%TD.AperFunction*%
%TD*%
%TA.AperFunction,Conductor*%
%TO.N,VCC*%
G36*
X20263039Y-400685D02*
G01*
X20308794Y-453489D01*
X20320000Y-505000D01*
X20320000Y-2924000D01*
X20300315Y-2991039D01*
X20247511Y-3036794D01*
X20196000Y-3048000D01*
X20020143Y-3048000D01*
X19963848Y-3034485D01*
X19928555Y-3016502D01*
X19928549Y-3016500D01*
X19833839Y-3001500D01*
X19833834Y-3001500D01*
X18520166Y-3001500D01*
X18520161Y-3001500D01*
X18425450Y-3016500D01*
X18425444Y-3016502D01*
X18390152Y-3034485D01*
X18333857Y-3048000D01*
X17653000Y-3048000D01*
X17653000Y-6480000D01*
X17633315Y-6547039D01*
X17580511Y-6592794D01*
X17529000Y-6604000D01*
X15491000Y-6604000D01*
X15423961Y-6584315D01*
X15378206Y-6531511D01*
X15367000Y-6480000D01*
X15367000Y-505000D01*
X15386685Y-437961D01*
X15439489Y-392206D01*
X15491000Y-381000D01*
X20196000Y-381000D01*
X20263039Y-400685D01*
G37*
%TD.AperFunction*%
%TD*%
%TA.AperFunction,Conductor*%
%TO.N,GND*%
G36*
X3673312Y-146685D02*
G01*
X3719067Y-199489D01*
X3729011Y-268647D01*
X3723314Y-291955D01*
X3677353Y-423298D01*
X3677353Y-423300D01*
X3674500Y-453730D01*
X3674500Y-1862269D01*
X3677353Y-1892699D01*
X3677353Y-1892701D01*
X3722206Y-2020880D01*
X3722207Y-2020882D01*
X3802850Y-2130150D01*
X3912118Y-2210793D01*
X3927462Y-2216162D01*
X4040299Y-2255646D01*
X4070730Y-2258500D01*
X4070734Y-2258500D01*
X4879270Y-2258500D01*
X4909699Y-2255646D01*
X4909701Y-2255646D01*
X4973790Y-2233219D01*
X5037882Y-2210793D01*
X5147150Y-2130150D01*
X5227793Y-2020882D01*
X5252588Y-1950022D01*
X5272646Y-1892701D01*
X5272646Y-1892699D01*
X5275500Y-1862269D01*
X5275500Y-453730D01*
X5272646Y-423300D01*
X5272646Y-423298D01*
X5226686Y-291955D01*
X5223123Y-222177D01*
X5257852Y-161549D01*
X5319845Y-129321D01*
X5343727Y-127000D01*
X5832273Y-127000D01*
X5899312Y-146685D01*
X5945067Y-199489D01*
X5955011Y-268647D01*
X5949314Y-291955D01*
X5903353Y-423298D01*
X5903353Y-423300D01*
X5900500Y-453730D01*
X5900500Y-1862269D01*
X5903353Y-1892699D01*
X5903353Y-1892701D01*
X5948206Y-2020880D01*
X5948207Y-2020882D01*
X6028850Y-2130150D01*
X6138118Y-2210793D01*
X6153462Y-2216162D01*
X6266299Y-2255646D01*
X6296730Y-2258500D01*
X6296734Y-2258500D01*
X7105270Y-2258500D01*
X7135699Y-2255646D01*
X7135701Y-2255646D01*
X7199790Y-2233219D01*
X7263882Y-2210793D01*
X7373150Y-2130150D01*
X7453793Y-2020882D01*
X7478588Y-1950022D01*
X7498646Y-1892701D01*
X7498646Y-1892699D01*
X7501500Y-1862269D01*
X7501500Y-453730D01*
X7498646Y-423300D01*
X7498646Y-423298D01*
X7452686Y-291955D01*
X7449123Y-222177D01*
X7483852Y-161549D01*
X7545845Y-129321D01*
X7569727Y-127000D01*
X10432273Y-127000D01*
X10499312Y-146685D01*
X10545067Y-199489D01*
X10555011Y-268647D01*
X10549314Y-291955D01*
X10503353Y-423298D01*
X10503353Y-423300D01*
X10500500Y-453730D01*
X10500500Y-1862269D01*
X10503353Y-1892699D01*
X10503353Y-1892701D01*
X10548206Y-2020880D01*
X10548207Y-2020882D01*
X10628850Y-2130150D01*
X10738118Y-2210793D01*
X10753462Y-2216162D01*
X10866299Y-2255646D01*
X10896730Y-2258500D01*
X10896734Y-2258500D01*
X11705270Y-2258500D01*
X11735699Y-2255646D01*
X11735701Y-2255646D01*
X11799790Y-2233219D01*
X11863882Y-2210793D01*
X11973150Y-2130150D01*
X11973152Y-2130146D01*
X11974819Y-2128481D01*
X11977093Y-2127238D01*
X11980626Y-2124632D01*
X11980982Y-2125115D01*
X12036142Y-2094996D01*
X12105834Y-2099980D01*
X12161767Y-2141852D01*
X12186184Y-2207316D01*
X12186500Y-2216162D01*
X12186500Y-3320950D01*
X12166815Y-3387989D01*
X12150181Y-3408631D01*
X11663830Y-3894981D01*
X11645260Y-3915655D01*
X11645246Y-3915671D01*
X11628628Y-3936294D01*
X11628620Y-3936306D01*
X11581698Y-4026007D01*
X11581695Y-4026012D01*
X11562013Y-4093044D01*
X11562010Y-4093056D01*
X11551500Y-4166160D01*
X11551500Y-6988008D01*
X11557430Y-7043161D01*
X11568639Y-7094683D01*
X11575986Y-7121463D01*
X11615893Y-7191543D01*
X11626089Y-7209448D01*
X11645467Y-7231811D01*
X11671840Y-7262248D01*
X11671843Y-7262251D01*
X11671844Y-7262252D01*
X11705131Y-7294371D01*
X11794849Y-7341303D01*
X11861888Y-7360988D01*
X11861892Y-7360988D01*
X11861894Y-7360989D01*
X11873707Y-7362687D01*
X11935000Y-7371500D01*
X12055013Y-7371500D01*
X12122052Y-7391185D01*
X12167807Y-7443989D01*
X12177751Y-7513147D01*
X12148726Y-7576703D01*
X12134721Y-7590488D01*
X12130249Y-7594240D01*
X12111228Y-7627184D01*
X12105417Y-7636305D01*
X12094070Y-7652510D01*
X12046961Y-7692784D01*
X12028519Y-7701800D01*
X11945802Y-7784516D01*
X11894427Y-7889606D01*
X11893975Y-7892711D01*
X11884500Y-7957740D01*
X11884500Y-7957745D01*
X11883971Y-7961377D01*
X11854826Y-8024879D01*
X11795977Y-8062543D01*
X11761266Y-8067500D01*
X11058344Y-8067500D01*
X11002049Y-8053985D01*
X10988207Y-8046932D01*
X10924126Y-8014281D01*
X10924125Y-8014280D01*
X10915431Y-8009851D01*
X10916589Y-8007578D01*
X10870767Y-7976245D01*
X10843570Y-7911886D01*
X10855486Y-7843040D01*
X10902731Y-7791565D01*
X10923429Y-7781571D01*
X11020981Y-7745186D01*
X11020984Y-7745184D01*
X11130329Y-7663329D01*
X11212184Y-7553984D01*
X11212185Y-7553983D01*
X11259916Y-7426010D01*
X11265999Y-7369428D01*
X11266000Y-7369427D01*
X11266000Y-7249000D01*
X9816001Y-7249000D01*
X9784953Y-7280048D01*
X9723630Y-7313533D01*
X9653938Y-7308549D01*
X9609591Y-7280048D01*
X9546098Y-7216555D01*
X9546093Y-7216551D01*
X9436015Y-7160463D01*
X9344691Y-7146000D01*
X9294000Y-7146000D01*
X9294000Y-7526000D01*
X9719246Y-7526000D01*
X9746977Y-7510857D01*
X9816668Y-7515839D01*
X9872603Y-7557709D01*
X9872605Y-7557711D01*
X9951670Y-7663329D01*
X10061015Y-7745184D01*
X10061018Y-7745186D01*
X10158570Y-7781571D01*
X10214504Y-7823442D01*
X10238921Y-7888907D01*
X10224069Y-7957180D01*
X10174664Y-8006585D01*
X10163717Y-8011304D01*
X10157874Y-8014280D01*
X10157874Y-8014281D01*
X10093793Y-8046932D01*
X10037778Y-8075473D01*
X10016752Y-8096500D01*
X9968069Y-8145182D01*
X9906749Y-8178666D01*
X9880390Y-8181500D01*
X9767824Y-8181500D01*
X9700785Y-8161815D01*
X9655030Y-8109011D01*
X9645086Y-8039853D01*
X9657340Y-8001204D01*
X9689535Y-7938018D01*
X9689536Y-7938015D01*
X9704000Y-7846691D01*
X9704000Y-7826000D01*
X8584001Y-7826000D01*
X8584001Y-7846690D01*
X8589894Y-7883902D01*
X8580938Y-7953196D01*
X8535940Y-8006647D01*
X8469188Y-8027285D01*
X8401875Y-8008559D01*
X8379739Y-7990979D01*
X8321433Y-7932673D01*
X8110819Y-7722058D01*
X8077334Y-7660735D01*
X8074500Y-7634377D01*
X8074500Y-7526000D01*
X8584000Y-7526000D01*
X8994000Y-7526000D01*
X8994000Y-7146000D01*
X8993999Y-7145999D01*
X8943311Y-7146000D01*
X8851982Y-7160465D01*
X8741906Y-7216552D01*
X8741901Y-7216555D01*
X8654555Y-7303901D01*
X8654551Y-7303906D01*
X8598463Y-7413984D01*
X8584000Y-7505308D01*
X8584000Y-7526000D01*
X8074500Y-7526000D01*
X8074500Y-7275254D01*
X8094185Y-7208215D01*
X8110819Y-7187573D01*
X8334483Y-6963909D01*
X8349392Y-6949000D01*
X9816000Y-6949000D01*
X10391000Y-6949000D01*
X10391000Y-6399000D01*
X10691000Y-6399000D01*
X10691000Y-6949000D01*
X11265999Y-6949000D01*
X11265999Y-6828566D01*
X11265998Y-6828560D01*
X11259918Y-6771992D01*
X11212186Y-6644018D01*
X11212184Y-6644015D01*
X11130329Y-6534670D01*
X11020984Y-6452815D01*
X11020983Y-6452814D01*
X10893010Y-6405083D01*
X10836428Y-6399000D01*
X10691000Y-6399000D01*
X10391000Y-6399000D01*
X10245566Y-6399000D01*
X10245559Y-6399001D01*
X10188992Y-6405081D01*
X10061018Y-6452813D01*
X10061015Y-6452815D01*
X9951670Y-6534670D01*
X9869815Y-6644015D01*
X9869814Y-6644016D01*
X9822083Y-6771989D01*
X9816000Y-6828571D01*
X9816000Y-6949000D01*
X8349392Y-6949000D01*
X8357050Y-6941342D01*
X8367109Y-6921597D01*
X8377271Y-6905014D01*
X8390296Y-6887090D01*
X8397141Y-6866022D01*
X8404586Y-6848045D01*
X8414646Y-6828304D01*
X8418112Y-6806415D01*
X8422652Y-6787501D01*
X8429499Y-6766433D01*
X8429499Y-6739654D01*
X8429500Y-6739629D01*
X8429500Y-6184309D01*
X8449185Y-6117270D01*
X8501989Y-6071515D01*
X8571147Y-6061571D01*
X8609796Y-6073825D01*
X8726981Y-6133535D01*
X8726983Y-6133536D01*
X8818304Y-6147999D01*
X8838999Y-6147999D01*
X8839000Y-6147998D01*
X8839000Y-5738000D01*
X9139000Y-5738000D01*
X9139000Y-6147999D01*
X9159689Y-6147999D01*
X9251017Y-6133534D01*
X9361093Y-6077447D01*
X9361098Y-6077444D01*
X9448444Y-5990098D01*
X9448448Y-5990093D01*
X9504536Y-5880015D01*
X9519000Y-5788691D01*
X9519000Y-5738000D01*
X9139000Y-5738000D01*
X8839000Y-5738000D01*
X8839000Y-5028001D01*
X8838999Y-5028000D01*
X9139000Y-5028000D01*
X9139000Y-5438000D01*
X9518999Y-5438000D01*
X9518999Y-5387310D01*
X9504534Y-5295982D01*
X9448447Y-5185906D01*
X9448444Y-5185901D01*
X9361098Y-5098555D01*
X9361093Y-5098551D01*
X9251015Y-5042463D01*
X9159691Y-5028000D01*
X9139000Y-5028000D01*
X8838999Y-5028000D01*
X8818315Y-5028000D01*
X8726982Y-5042465D01*
X8616906Y-5098552D01*
X8616901Y-5098555D01*
X8613181Y-5102276D01*
X8551858Y-5135761D01*
X8482166Y-5130777D01*
X8426233Y-5088905D01*
X8401816Y-5023441D01*
X8401500Y-5014595D01*
X8401500Y-4653544D01*
X8421185Y-4586505D01*
X8473989Y-4540750D01*
X8543147Y-4530806D01*
X8606703Y-4559831D01*
X8613181Y-4565863D01*
X8644514Y-4597196D01*
X8644515Y-4597196D01*
X8644517Y-4597198D01*
X8749607Y-4648573D01*
X8772517Y-4651911D01*
X8817739Y-4658500D01*
X8817740Y-4658500D01*
X9184261Y-4658500D01*
X9218275Y-4653544D01*
X9252393Y-4648573D01*
X9357483Y-4597198D01*
X9376502Y-4578179D01*
X9413672Y-4541010D01*
X9474995Y-4507525D01*
X9544687Y-4512509D01*
X9589034Y-4541010D01*
X9644808Y-4596784D01*
X9749751Y-4648087D01*
X9776000Y-4651911D01*
X9776000Y-3908000D01*
X10226000Y-3908000D01*
X10226000Y-4651910D01*
X10252248Y-4648087D01*
X10357191Y-4596784D01*
X10439787Y-4514188D01*
X10491087Y-4409251D01*
X10491088Y-4409248D01*
X10501000Y-4341219D01*
X10501000Y-3908000D01*
X10226000Y-3908000D01*
X9776000Y-3908000D01*
X9776000Y-2714087D01*
X9775999Y-2714086D01*
X10226000Y-2714086D01*
X10226000Y-3458000D01*
X10500999Y-3458000D01*
X10500999Y-3024782D01*
X10491087Y-2956750D01*
X10439784Y-2851808D01*
X10357188Y-2769212D01*
X10252249Y-2717911D01*
X10252250Y-2717911D01*
X10226000Y-2714086D01*
X9775999Y-2714086D01*
X9749750Y-2717911D01*
X9644811Y-2769212D01*
X9644809Y-2769214D01*
X9629181Y-2784843D01*
X9567858Y-2818328D01*
X9498166Y-2813344D01*
X9442233Y-2771472D01*
X9417816Y-2706008D01*
X9417500Y-2697162D01*
X9417500Y-2507332D01*
X9437185Y-2440293D01*
X9437901Y-2439336D01*
X9442368Y-2432382D01*
X9442377Y-2432373D01*
X9502165Y-2301457D01*
X9522647Y-2159000D01*
X9502165Y-2016543D01*
X9442377Y-1885627D01*
X9348128Y-1776857D01*
X9227053Y-1699047D01*
X9227051Y-1699046D01*
X9227049Y-1699045D01*
X9227050Y-1699045D01*
X9088963Y-1658500D01*
X9088961Y-1658500D01*
X8945039Y-1658500D01*
X8945036Y-1658500D01*
X8806949Y-1699045D01*
X8685873Y-1776856D01*
X8591623Y-1885626D01*
X8591622Y-1885628D01*
X8531834Y-2016543D01*
X8511353Y-2159000D01*
X8531834Y-2301456D01*
X8571123Y-2387485D01*
X8591623Y-2432373D01*
X8591627Y-2432378D01*
X8596418Y-2439833D01*
X8593364Y-2441795D01*
X8615235Y-2489663D01*
X8616500Y-2507332D01*
X8616500Y-2728456D01*
X8596815Y-2795495D01*
X8544011Y-2841250D01*
X8474853Y-2851194D01*
X8411297Y-2822169D01*
X8404819Y-2816137D01*
X8357485Y-2768803D01*
X8252391Y-2717426D01*
X8184261Y-2707500D01*
X8184260Y-2707500D01*
X7817740Y-2707500D01*
X7817739Y-2707500D01*
X7749608Y-2717426D01*
X7644514Y-2768803D01*
X7561803Y-2851514D01*
X7510426Y-2956608D01*
X7500500Y-3024739D01*
X7500500Y-4341260D01*
X7510426Y-4409391D01*
X7561801Y-4514482D01*
X7561802Y-4514483D01*
X7564178Y-4516859D01*
X7566391Y-4520911D01*
X7567773Y-4522847D01*
X7567539Y-4523013D01*
X7597665Y-4578179D01*
X7600500Y-4604543D01*
X7600500Y-5203507D01*
X7588882Y-5255912D01*
X7555028Y-5328511D01*
X7555027Y-5328512D01*
X7548500Y-5378098D01*
X7548500Y-5797894D01*
X7548501Y-5797900D01*
X7555028Y-5847487D01*
X7555029Y-5847489D01*
X7555029Y-5847490D01*
X7605776Y-5956316D01*
X7606071Y-5956737D01*
X7606328Y-5957500D01*
X7610361Y-5966148D01*
X7609396Y-5966597D01*
X7628402Y-6022942D01*
X7628500Y-6027865D01*
X7628500Y-6485745D01*
X7608815Y-6552784D01*
X7592185Y-6573421D01*
X7549107Y-6616500D01*
X7509672Y-6655935D01*
X7467295Y-6683680D01*
X7418252Y-6702928D01*
X7372952Y-6711500D01*
X6900129Y-6711500D01*
X6833090Y-6691815D01*
X6787335Y-6639011D01*
X6777391Y-6569853D01*
X6799210Y-6515449D01*
X6804663Y-6507810D01*
X6861096Y-6392374D01*
X6872000Y-6317535D01*
X6872000Y-6246000D01*
X6326000Y-6246000D01*
X6258961Y-6226315D01*
X6213206Y-6173511D01*
X6202000Y-6122000D01*
X6202000Y-5526001D01*
X6201999Y-5526000D01*
X6502000Y-5526000D01*
X6502000Y-5946000D01*
X6871999Y-5946000D01*
X6871999Y-5874460D01*
X6861096Y-5799625D01*
X6804663Y-5684189D01*
X6713810Y-5593336D01*
X6598374Y-5536903D01*
X6523536Y-5526000D01*
X6502000Y-5526000D01*
X6201999Y-5526000D01*
X6201998Y-5525999D01*
X6180464Y-5526000D01*
X6105626Y-5536903D01*
X5990191Y-5593335D01*
X5894678Y-5688848D01*
X5833355Y-5722332D01*
X5763663Y-5717348D01*
X5719316Y-5688847D01*
X5662404Y-5631935D01*
X5625506Y-5614729D01*
X5555173Y-5581932D01*
X5555171Y-5581931D01*
X5555172Y-5581931D01*
X5506317Y-5575500D01*
X5506316Y-5575500D01*
X5157684Y-5575500D01*
X5157683Y-5575500D01*
X5108828Y-5581931D01*
X5001594Y-5631936D01*
X4998541Y-5634074D01*
X4993007Y-5635940D01*
X4991764Y-5636520D01*
X4991699Y-5636381D01*
X4932335Y-5656402D01*
X4927417Y-5656500D01*
X4739500Y-5656500D01*
X4672461Y-5636815D01*
X4626706Y-5584011D01*
X4615500Y-5532500D01*
X4615500Y-5522855D01*
X4615499Y-5522851D01*
X4601512Y-5452530D01*
X4601511Y-5452529D01*
X4601511Y-5452528D01*
X4548223Y-5372777D01*
X4468472Y-5319489D01*
X4468471Y-5319488D01*
X4468470Y-5319488D01*
X4468469Y-5319487D01*
X4398148Y-5305500D01*
X4398144Y-5305500D01*
X3851856Y-5305500D01*
X3851851Y-5305500D01*
X3781530Y-5319487D01*
X3781529Y-5319488D01*
X3701777Y-5372777D01*
X3648488Y-5452529D01*
X3648487Y-5452530D01*
X3634500Y-5522851D01*
X3634500Y-6699148D01*
X3648487Y-6769469D01*
X3648489Y-6769472D01*
X3650587Y-6772612D01*
X3653055Y-6780494D01*
X3653162Y-6780753D01*
X3653138Y-6780762D01*
X3671463Y-6839289D01*
X3652977Y-6906669D01*
X3600997Y-6953358D01*
X3547483Y-6965500D01*
X3392370Y-6965500D01*
X3392346Y-6965501D01*
X3365564Y-6965501D01*
X3344499Y-6972346D01*
X3325582Y-6976887D01*
X3303700Y-6980352D01*
X3303695Y-6980354D01*
X3283950Y-6990414D01*
X3265986Y-6997855D01*
X3244907Y-7004705D01*
X3226984Y-7017727D01*
X3210399Y-7027890D01*
X3190659Y-7037948D01*
X3184818Y-7043790D01*
X3168091Y-7060517D01*
X2869516Y-7359091D01*
X2869513Y-7359093D01*
X2869513Y-7359094D01*
X2858231Y-7370376D01*
X2846948Y-7381659D01*
X2846948Y-7381660D01*
X2836891Y-7401397D01*
X2826731Y-7417977D01*
X2813706Y-7435905D01*
X2813703Y-7435910D01*
X2806854Y-7456988D01*
X2799413Y-7474952D01*
X2789354Y-7494695D01*
X2785887Y-7516582D01*
X2781347Y-7535491D01*
X2774500Y-7556567D01*
X2774500Y-7735165D01*
X2754815Y-7802204D01*
X2702011Y-7847959D01*
X2632853Y-7857903D01*
X2581611Y-7838268D01*
X2568472Y-7829489D01*
X2568469Y-7829488D01*
X2568469Y-7829487D01*
X2498148Y-7815500D01*
X2498144Y-7815500D01*
X1951856Y-7815500D01*
X1951851Y-7815500D01*
X1881530Y-7829487D01*
X1881529Y-7829488D01*
X1801777Y-7882777D01*
X1748488Y-7962529D01*
X1748487Y-7962530D01*
X1734500Y-8032851D01*
X1734500Y-8096500D01*
X1714815Y-8163539D01*
X1662011Y-8209294D01*
X1610500Y-8220500D01*
X1331633Y-8220500D01*
X1264594Y-8200815D01*
X1226055Y-8176047D01*
X1226050Y-8176045D01*
X1087963Y-8135500D01*
X1087961Y-8135500D01*
X944039Y-8135500D01*
X944036Y-8135500D01*
X805949Y-8176045D01*
X684873Y-8253856D01*
X590623Y-8362626D01*
X590622Y-8362628D01*
X530834Y-8493543D01*
X510353Y-8636000D01*
X530834Y-8778456D01*
X588169Y-8904000D01*
X590623Y-8909373D01*
X684872Y-9018143D01*
X805947Y-9095953D01*
X805950Y-9095954D01*
X805949Y-9095954D01*
X944036Y-9136499D01*
X944038Y-9136500D01*
X944039Y-9136500D01*
X1087962Y-9136500D01*
X1087962Y-9136499D01*
X1212321Y-9099985D01*
X1226050Y-9095954D01*
X1226051Y-9095953D01*
X1226053Y-9095953D01*
X1226055Y-9095952D01*
X1311275Y-9041185D01*
X1378314Y-9021500D01*
X1610500Y-9021500D01*
X1677539Y-9041185D01*
X1723294Y-9093989D01*
X1734500Y-9145500D01*
X1734500Y-9209148D01*
X1748487Y-9279469D01*
X1748488Y-9279470D01*
X1748488Y-9279471D01*
X1748489Y-9279472D01*
X1801777Y-9359223D01*
X1881528Y-9412511D01*
X1881529Y-9412511D01*
X1881530Y-9412512D01*
X1951851Y-9426499D01*
X1951855Y-9426500D01*
X1951856Y-9426500D01*
X2498145Y-9426500D01*
X2498146Y-9426499D01*
X2533308Y-9419505D01*
X2568468Y-9412512D01*
X2568468Y-9412511D01*
X2568472Y-9412511D01*
X2631113Y-9370655D01*
X2697786Y-9349779D01*
X2765166Y-9368263D01*
X2768818Y-9370609D01*
X2831528Y-9412511D01*
X2831531Y-9412511D01*
X2831532Y-9412512D01*
X2831530Y-9412512D01*
X2901851Y-9426499D01*
X2901855Y-9426500D01*
X2901856Y-9426500D01*
X3448145Y-9426500D01*
X3448146Y-9426499D01*
X3483308Y-9419505D01*
X3518468Y-9412512D01*
X3518468Y-9412511D01*
X3518472Y-9412511D01*
X3581113Y-9370655D01*
X3647786Y-9349779D01*
X3715166Y-9368263D01*
X3718818Y-9370609D01*
X3781528Y-9412511D01*
X3781531Y-9412511D01*
X3781532Y-9412512D01*
X3781530Y-9412512D01*
X3851851Y-9426499D01*
X3851855Y-9426500D01*
X3851856Y-9426500D01*
X4398145Y-9426500D01*
X4398146Y-9426499D01*
X4421798Y-9421794D01*
X4468469Y-9412512D01*
X4468469Y-9412511D01*
X4468472Y-9412511D01*
X4529088Y-9372008D01*
X4595763Y-9351131D01*
X4663143Y-9369615D01*
X4667812Y-9372646D01*
X4688070Y-9386457D01*
X4691804Y-9389107D01*
X4738227Y-9423370D01*
X4738228Y-9423370D01*
X4738229Y-9423371D01*
X4745798Y-9427372D01*
X4753569Y-9431114D01*
X4753572Y-9431116D01*
X4808742Y-9448133D01*
X4813063Y-9449555D01*
X4867549Y-9468621D01*
X4867551Y-9468621D01*
X4875997Y-9470219D01*
X4884494Y-9471499D01*
X4884495Y-9471500D01*
X4942179Y-9471500D01*
X4946815Y-9471586D01*
X4964463Y-9472247D01*
X5004461Y-9473744D01*
X5004461Y-9473743D01*
X5004463Y-9473744D01*
X5004464Y-9473743D01*
X5013695Y-9472704D01*
X5013787Y-9473524D01*
X5029162Y-9471500D01*
X5219295Y-9471500D01*
X5273754Y-9484098D01*
X5362830Y-9527645D01*
X5430472Y-9537500D01*
X5430478Y-9537500D01*
X5791522Y-9537500D01*
X5791528Y-9537500D01*
X5859170Y-9527645D01*
X5963511Y-9476636D01*
X5971527Y-9468620D01*
X6008319Y-9431829D01*
X6069642Y-9398344D01*
X6139334Y-9403328D01*
X6183681Y-9431829D01*
X6228486Y-9476634D01*
X6228487Y-9476634D01*
X6228489Y-9476636D01*
X6332830Y-9527645D01*
X6400472Y-9537500D01*
X6400478Y-9537500D01*
X6761522Y-9537500D01*
X6761528Y-9537500D01*
X6829170Y-9527645D01*
X6933511Y-9476636D01*
X7015636Y-9394511D01*
X7066645Y-9290170D01*
X7076500Y-9222528D01*
X7076500Y-8811472D01*
X7066645Y-8743830D01*
X7015636Y-8639489D01*
X7015634Y-8639487D01*
X7015634Y-8639486D01*
X6933512Y-8557364D01*
X6925150Y-8551394D01*
X6926806Y-8549073D01*
X6887025Y-8512720D01*
X6869116Y-8445185D01*
X6890563Y-8378688D01*
X6928824Y-8346154D01*
X6927517Y-8344288D01*
X6936401Y-8338066D01*
X6936404Y-8338065D01*
X7020065Y-8254404D01*
X7052581Y-8184673D01*
X7098749Y-8132239D01*
X7165942Y-8113086D01*
X7232824Y-8133301D01*
X7252641Y-8149401D01*
X7290973Y-8187733D01*
X7294165Y-8191046D01*
X7333423Y-8233356D01*
X7340686Y-8239148D01*
X7340170Y-8239793D01*
X7352475Y-8249235D01*
X8037639Y-8934399D01*
X8046905Y-8944767D01*
X8069370Y-8972937D01*
X8069371Y-8972938D01*
X8117033Y-9005432D01*
X8120804Y-9008107D01*
X8167227Y-9042370D01*
X8167228Y-9042370D01*
X8167229Y-9042371D01*
X8174798Y-9046372D01*
X8182569Y-9050114D01*
X8182572Y-9050116D01*
X8237742Y-9067133D01*
X8242063Y-9068555D01*
X8296549Y-9087621D01*
X8296551Y-9087621D01*
X8304997Y-9089219D01*
X8313494Y-9090499D01*
X8313495Y-9090500D01*
X8371179Y-9090500D01*
X8375815Y-9090586D01*
X8393463Y-9091247D01*
X8433461Y-9092744D01*
X8433461Y-9092743D01*
X8433463Y-9092744D01*
X8433464Y-9092743D01*
X8442695Y-9091704D01*
X8442787Y-9092524D01*
X8458162Y-9090500D01*
X8815265Y-9090500D01*
X8867669Y-9102117D01*
X8884513Y-9109972D01*
X8934099Y-9116500D01*
X9353900Y-9116499D01*
X9403487Y-9109972D01*
X9420330Y-9102117D01*
X9472735Y-9090500D01*
X9854389Y-9090500D01*
X9921428Y-9110185D01*
X9942070Y-9126819D01*
X10037774Y-9222523D01*
X10037778Y-9222526D01*
X10037780Y-9222528D01*
X10157874Y-9283719D01*
X10157876Y-9283719D01*
X10157878Y-9283720D01*
X10257507Y-9299500D01*
X10257512Y-9299500D01*
X10824493Y-9299500D01*
X10924123Y-9283720D01*
X10924124Y-9283719D01*
X10924126Y-9283719D01*
X11002049Y-9244014D01*
X11058344Y-9230500D01*
X11902457Y-9230500D01*
X11969496Y-9250185D01*
X11990139Y-9266820D01*
X12028514Y-9305196D01*
X12028515Y-9305196D01*
X12028517Y-9305198D01*
X12133607Y-9356573D01*
X12151795Y-9359223D01*
X12201739Y-9366500D01*
X12201740Y-9366500D01*
X12568261Y-9366500D01*
X12590971Y-9363191D01*
X12636393Y-9356573D01*
X12741483Y-9305198D01*
X12824198Y-9222483D01*
X12875573Y-9117393D01*
X12885500Y-9049260D01*
X12885500Y-8839384D01*
X12894939Y-8791932D01*
X12918864Y-8734171D01*
X12951532Y-8655302D01*
X12971518Y-8503500D01*
X12951532Y-8351698D01*
X12911005Y-8253856D01*
X12894939Y-8215068D01*
X12885500Y-8167616D01*
X12885500Y-7957745D01*
X12885190Y-7953472D01*
X12899972Y-7885184D01*
X12949327Y-7835728D01*
X13008865Y-7820500D01*
X13661135Y-7820500D01*
X13728174Y-7840185D01*
X13773929Y-7892989D01*
X13784810Y-7953472D01*
X13784500Y-7957745D01*
X13784500Y-9049260D01*
X13794426Y-9117391D01*
X13845803Y-9222485D01*
X13928514Y-9305196D01*
X13928515Y-9305196D01*
X13928517Y-9305198D01*
X14033607Y-9356573D01*
X14051795Y-9359223D01*
X14101739Y-9366500D01*
X14101740Y-9366500D01*
X14468261Y-9366500D01*
X14490971Y-9363191D01*
X14536393Y-9356573D01*
X14641483Y-9305198D01*
X14724198Y-9222483D01*
X14775573Y-9117393D01*
X14785500Y-9049260D01*
X14785500Y-9028000D01*
X14805185Y-8960961D01*
X14857989Y-8915206D01*
X14909500Y-8904000D01*
X17076415Y-8904000D01*
X17135375Y-8921312D01*
X17135764Y-8920480D01*
X17141247Y-8923037D01*
X17143454Y-8923685D01*
X17145317Y-8924934D01*
X17145594Y-8925063D01*
X17145596Y-8925065D01*
X17252827Y-8975068D01*
X17301683Y-8981500D01*
X17301684Y-8981500D01*
X17750317Y-8981500D01*
X17766601Y-8979356D01*
X17799173Y-8975068D01*
X17906404Y-8925065D01*
X17906404Y-8925064D01*
X17910579Y-8923118D01*
X17962984Y-8911500D01*
X18105016Y-8911500D01*
X18157421Y-8923118D01*
X18161595Y-8925064D01*
X18161596Y-8925065D01*
X18268827Y-8975068D01*
X18317683Y-8981500D01*
X18317684Y-8981500D01*
X18766317Y-8981500D01*
X18782601Y-8979356D01*
X18815173Y-8975068D01*
X18922404Y-8925065D01*
X19006065Y-8841404D01*
X19056068Y-8734173D01*
X19062500Y-8685316D01*
X19062500Y-8336684D01*
X19056068Y-8287827D01*
X19006065Y-8180596D01*
X18949152Y-8123683D01*
X18923770Y-8077200D01*
X19865093Y-8077200D01*
X19871943Y-8155500D01*
X19872732Y-8164512D01*
X19873204Y-8175320D01*
X19873204Y-8193300D01*
X19876326Y-8211008D01*
X19877737Y-8221727D01*
X19885377Y-8309045D01*
X19908060Y-8393703D01*
X19910401Y-8404259D01*
X19910403Y-8404268D01*
X19913525Y-8421973D01*
X19919670Y-8438857D01*
X19919674Y-8438867D01*
X19922925Y-8449179D01*
X19945611Y-8533844D01*
X19982653Y-8613282D01*
X19986790Y-8623270D01*
X19992943Y-8640174D01*
X20001934Y-8655748D01*
X20006926Y-8665337D01*
X20043969Y-8744774D01*
X20094244Y-8816574D01*
X20100058Y-8825700D01*
X20109040Y-8841259D01*
X20109045Y-8841266D01*
X20120603Y-8855041D01*
X20127181Y-8863612D01*
X20159223Y-8909373D01*
X20177457Y-8935414D01*
X20239423Y-8997380D01*
X20246729Y-9005352D01*
X20258298Y-9019139D01*
X20258307Y-9019148D01*
X20272074Y-9030699D01*
X20280052Y-9038009D01*
X20342023Y-9099980D01*
X20342026Y-9099982D01*
X20342030Y-9099985D01*
X20413823Y-9150256D01*
X20422402Y-9156838D01*
X20436174Y-9168394D01*
X20451750Y-9177386D01*
X20460850Y-9183184D01*
X20532665Y-9233469D01*
X20532668Y-9233470D01*
X20532669Y-9233471D01*
X20612095Y-9270508D01*
X20621689Y-9275502D01*
X20628562Y-9279470D01*
X20637266Y-9284495D01*
X20652861Y-9290171D01*
X20654169Y-9290647D01*
X20664149Y-9294781D01*
X20743591Y-9331825D01*
X20743599Y-9331827D01*
X20743601Y-9331828D01*
X20764956Y-9337549D01*
X20828269Y-9354514D01*
X20838560Y-9357759D01*
X20855464Y-9363912D01*
X20873178Y-9367035D01*
X20883711Y-9369369D01*
X20968392Y-9392060D01*
X21055724Y-9399700D01*
X21066413Y-9401107D01*
X21084137Y-9404233D01*
X21102117Y-9404233D01*
X21112922Y-9404704D01*
X21130732Y-9406263D01*
X21200236Y-9412344D01*
X21200237Y-9412344D01*
X21200238Y-9412344D01*
X21269742Y-9406263D01*
X21287551Y-9404704D01*
X21298357Y-9404233D01*
X21316336Y-9404233D01*
X21316337Y-9404233D01*
X21334074Y-9401105D01*
X21344730Y-9399702D01*
X21432082Y-9392060D01*
X21516762Y-9369369D01*
X21527286Y-9367037D01*
X21545010Y-9363912D01*
X21561930Y-9357753D01*
X21572198Y-9354516D01*
X21656883Y-9331825D01*
X21736337Y-9294775D01*
X21746293Y-9290651D01*
X21763208Y-9284495D01*
X21778789Y-9275498D01*
X21788347Y-9270522D01*
X21867809Y-9233469D01*
X21939623Y-9183183D01*
X21948703Y-9177398D01*
X21964300Y-9168394D01*
X21978072Y-9156837D01*
X21986638Y-9150263D01*
X22058451Y-9099980D01*
X22120450Y-9037980D01*
X22128381Y-9030713D01*
X22142176Y-9019139D01*
X22153750Y-9005344D01*
X22161017Y-8997413D01*
X22223017Y-8935414D01*
X22273300Y-8863601D01*
X22279878Y-8855031D01*
X22291431Y-8841263D01*
X22300435Y-8825666D01*
X22306220Y-8816586D01*
X22356506Y-8744772D01*
X22393559Y-8665310D01*
X22398535Y-8655752D01*
X22407532Y-8640171D01*
X22413688Y-8623256D01*
X22417812Y-8613300D01*
X22454862Y-8533846D01*
X22477553Y-8449161D01*
X22480790Y-8438893D01*
X22486949Y-8421973D01*
X22490074Y-8404249D01*
X22492406Y-8393725D01*
X22515097Y-8309045D01*
X22522737Y-8221710D01*
X22524145Y-8211020D01*
X22527270Y-8193300D01*
X22527861Y-8166167D01*
X22528299Y-8158143D01*
X22535381Y-8077200D01*
X22528299Y-7996261D01*
X22527861Y-7988228D01*
X22527270Y-7961100D01*
X22524144Y-7943376D01*
X22522736Y-7932673D01*
X22515097Y-7845355D01*
X22492406Y-7760674D01*
X22490071Y-7750135D01*
X22486949Y-7732427D01*
X22480796Y-7715523D01*
X22477547Y-7705217D01*
X22460340Y-7641000D01*
X22454865Y-7620564D01*
X22454864Y-7620562D01*
X22454862Y-7620554D01*
X22417818Y-7541112D01*
X22413684Y-7531132D01*
X22411816Y-7526000D01*
X22407532Y-7514229D01*
X22403247Y-7506807D01*
X22398539Y-7498652D01*
X22393545Y-7489058D01*
X22356508Y-7409632D01*
X22356507Y-7409631D01*
X22356506Y-7409628D01*
X22306221Y-7337813D01*
X22300422Y-7328710D01*
X22291431Y-7313137D01*
X22279871Y-7299360D01*
X22273293Y-7290786D01*
X22223022Y-7218993D01*
X22223021Y-7218992D01*
X22223017Y-7218986D01*
X22161046Y-7157015D01*
X22153736Y-7149037D01*
X22142185Y-7135270D01*
X22142176Y-7135261D01*
X22128389Y-7123692D01*
X22120417Y-7116386D01*
X22058451Y-7054420D01*
X22042371Y-7043161D01*
X21986644Y-7004140D01*
X21978078Y-6997566D01*
X21964303Y-6986008D01*
X21964296Y-6986003D01*
X21953863Y-6979980D01*
X21948731Y-6977017D01*
X21939611Y-6971207D01*
X21867811Y-6920932D01*
X21867802Y-6920928D01*
X21857151Y-6915961D01*
X21788374Y-6883889D01*
X21778785Y-6878897D01*
X21763211Y-6869906D01*
X21746307Y-6863753D01*
X21736319Y-6859616D01*
X21656881Y-6822574D01*
X21572216Y-6799888D01*
X21561904Y-6796637D01*
X21545010Y-6790488D01*
X21545005Y-6790487D01*
X21527296Y-6787364D01*
X21516740Y-6785023D01*
X21432082Y-6762340D01*
X21344764Y-6754700D01*
X21334045Y-6753289D01*
X21316337Y-6750167D01*
X21298357Y-6750167D01*
X21287551Y-6749695D01*
X21237420Y-6745309D01*
X21200238Y-6742056D01*
X21200236Y-6742056D01*
X21163053Y-6745309D01*
X21112922Y-6749695D01*
X21102117Y-6750167D01*
X21084138Y-6750167D01*
X21084137Y-6750167D01*
X21068895Y-6752854D01*
X21066431Y-6753289D01*
X21055710Y-6754700D01*
X20968391Y-6762340D01*
X20883725Y-6785025D01*
X20873172Y-6787365D01*
X20855463Y-6790488D01*
X20855458Y-6790489D01*
X20838564Y-6796638D01*
X20828254Y-6799889D01*
X20743588Y-6822575D01*
X20664154Y-6859615D01*
X20654171Y-6863750D01*
X20637272Y-6869902D01*
X20637266Y-6869905D01*
X20621691Y-6878896D01*
X20612106Y-6883885D01*
X20532669Y-6920928D01*
X20460865Y-6971205D01*
X20451747Y-6977014D01*
X20436174Y-6986005D01*
X20422397Y-6997564D01*
X20413826Y-7004140D01*
X20342023Y-7054419D01*
X20280040Y-7116401D01*
X20272071Y-7123703D01*
X20258298Y-7135261D01*
X20246740Y-7149034D01*
X20239438Y-7157003D01*
X20177456Y-7218986D01*
X20127177Y-7290789D01*
X20120601Y-7299360D01*
X20109042Y-7313137D01*
X20100051Y-7328710D01*
X20094242Y-7337828D01*
X20043965Y-7409632D01*
X20006922Y-7489069D01*
X20001933Y-7498654D01*
X19992942Y-7514229D01*
X19992939Y-7514235D01*
X19986787Y-7531134D01*
X19982652Y-7541117D01*
X19945612Y-7620551D01*
X19922926Y-7705217D01*
X19919675Y-7715527D01*
X19913526Y-7732421D01*
X19913525Y-7732426D01*
X19910402Y-7750135D01*
X19908062Y-7760688D01*
X19885377Y-7845354D01*
X19877737Y-7932673D01*
X19876326Y-7943394D01*
X19873204Y-7961101D01*
X19873204Y-7979078D01*
X19872732Y-7989885D01*
X19865942Y-8067500D01*
X19865093Y-8077200D01*
X18923770Y-8077200D01*
X18915667Y-8062360D01*
X18920651Y-7992668D01*
X18949152Y-7948320D01*
X19044664Y-7852808D01*
X19101096Y-7737374D01*
X19112000Y-7662535D01*
X19112000Y-7641000D01*
X18516000Y-7641000D01*
X18448961Y-7621315D01*
X18403206Y-7568511D01*
X18392000Y-7517000D01*
X18392000Y-6971000D01*
X18692000Y-6971000D01*
X18692000Y-7341000D01*
X19111999Y-7341000D01*
X19111999Y-7319460D01*
X19101096Y-7244625D01*
X19044663Y-7129189D01*
X18953810Y-7038336D01*
X18838374Y-6981903D01*
X18763536Y-6971000D01*
X18692000Y-6971000D01*
X18392000Y-6971000D01*
X18391999Y-6970999D01*
X18320465Y-6971000D01*
X18245626Y-6981903D01*
X18130189Y-7038336D01*
X18122551Y-7043790D01*
X18056553Y-7066723D01*
X17988632Y-7050334D01*
X17940354Y-6999827D01*
X17926500Y-6942871D01*
X17926500Y-6441080D01*
X17926499Y-6441065D01*
X17926499Y-6413568D01*
X17926499Y-6413567D01*
X17919653Y-6392501D01*
X17915110Y-6373573D01*
X17914413Y-6369173D01*
X17914024Y-6366716D01*
X17912500Y-6347331D01*
X17912500Y-3781000D01*
X18208089Y-3781000D01*
X18211912Y-3807248D01*
X18263215Y-3912191D01*
X18345811Y-3994787D01*
X18450748Y-4046087D01*
X18450751Y-4046088D01*
X18518780Y-4055999D01*
X18951999Y-4055999D01*
X18952000Y-4055998D01*
X18952000Y-3781000D01*
X19402000Y-3781000D01*
X19402000Y-4055999D01*
X19835218Y-4055999D01*
X19903249Y-4046087D01*
X20008191Y-3994784D01*
X20090784Y-3912191D01*
X20142087Y-3807248D01*
X20145911Y-3781000D01*
X19402000Y-3781000D01*
X18952000Y-3781000D01*
X18208089Y-3781000D01*
X17912500Y-3781000D01*
X17912500Y-3431500D01*
X17932185Y-3364461D01*
X17984989Y-3318706D01*
X18036500Y-3307500D01*
X18131065Y-3307500D01*
X18198104Y-3327185D01*
X18202503Y-3331000D01*
X20157594Y-3331000D01*
X20189967Y-3310151D01*
X20211747Y-3305806D01*
X20251163Y-3301569D01*
X20302674Y-3290363D01*
X20329461Y-3283014D01*
X20417448Y-3232911D01*
X20470252Y-3187156D01*
X20502371Y-3153869D01*
X20549303Y-3064151D01*
X20568988Y-2997112D01*
X20579500Y-2924000D01*
X20579500Y-2062816D01*
X20599185Y-1995777D01*
X20651989Y-1950022D01*
X20721147Y-1940078D01*
X20777130Y-1963044D01*
X20839118Y-2008793D01*
X20873661Y-2020880D01*
X20967299Y-2053646D01*
X20997730Y-2056500D01*
X20997734Y-2056500D01*
X22406270Y-2056500D01*
X22436699Y-2053646D01*
X22436701Y-2053646D01*
X22530333Y-2020882D01*
X22564882Y-2008793D01*
X22674150Y-1928150D01*
X22754793Y-1818882D01*
X22754793Y-1818881D01*
X22760311Y-1811405D01*
X22762031Y-1812675D01*
X22802091Y-1771506D01*
X22870154Y-1755722D01*
X22935946Y-1779241D01*
X22978578Y-1834597D01*
X22987000Y-1879515D01*
X22987000Y-4232484D01*
X22967315Y-4299523D01*
X22914511Y-4345278D01*
X22845353Y-4355222D01*
X22781797Y-4326197D01*
X22761030Y-4300064D01*
X22760311Y-4300595D01*
X22710043Y-4232484D01*
X22674150Y-4183850D01*
X22564882Y-4103207D01*
X22564880Y-4103206D01*
X22436700Y-4058353D01*
X22406270Y-4055500D01*
X22406266Y-4055500D01*
X20997734Y-4055500D01*
X20997730Y-4055500D01*
X20967300Y-4058353D01*
X20967298Y-4058353D01*
X20839119Y-4103206D01*
X20839117Y-4103207D01*
X20729850Y-4183850D01*
X20649207Y-4293117D01*
X20649206Y-4293119D01*
X20604353Y-4421298D01*
X20604353Y-4421300D01*
X20601500Y-4451730D01*
X20601500Y-5260269D01*
X20604353Y-5290699D01*
X20604353Y-5290701D01*
X20647035Y-5412675D01*
X20649207Y-5418882D01*
X20729850Y-5528150D01*
X20839118Y-5608793D01*
X20881845Y-5623744D01*
X20967299Y-5653646D01*
X20997730Y-5656500D01*
X20997734Y-5656500D01*
X22406270Y-5656500D01*
X22436699Y-5653646D01*
X22436701Y-5653646D01*
X22500790Y-5631219D01*
X22564882Y-5608793D01*
X22674150Y-5528150D01*
X22754793Y-5418882D01*
X22754794Y-5418880D01*
X22760311Y-5411405D01*
X22762031Y-5412675D01*
X22802091Y-5371506D01*
X22870154Y-5355722D01*
X22935946Y-5379241D01*
X22978578Y-5434597D01*
X22987000Y-5479515D01*
X22987000Y-9909000D01*
X22967315Y-9976039D01*
X22914511Y-10021794D01*
X22863000Y-10033000D01*
X225919Y-10033000D01*
X158880Y-10013315D01*
X113125Y-9960511D01*
X101919Y-9908682D01*
X104656Y-8841259D01*
X107769Y-7626889D01*
X127626Y-7559902D01*
X180547Y-7514283D01*
X249731Y-7504517D01*
X284174Y-7514827D01*
X375646Y-7557481D01*
X375645Y-7557481D01*
X410000Y-7562004D01*
X410000Y-7309000D01*
X860000Y-7309000D01*
X860000Y-7562003D01*
X894353Y-7557481D01*
X1003024Y-7506807D01*
X1087807Y-7422024D01*
X1138479Y-7313358D01*
X1138480Y-7313356D01*
X1139054Y-7309000D01*
X860000Y-7309000D01*
X410000Y-7309000D01*
X410000Y-6983000D01*
X429685Y-6915961D01*
X482489Y-6870206D01*
X534000Y-6859000D01*
X1139053Y-6859000D01*
X1138480Y-6854643D01*
X1138479Y-6854640D01*
X1091972Y-6754905D01*
X1081480Y-6685827D01*
X1110000Y-6622043D01*
X1168476Y-6583804D01*
X1204354Y-6578500D01*
X1610500Y-6578500D01*
X1677539Y-6598185D01*
X1723294Y-6650989D01*
X1732481Y-6693222D01*
X1733903Y-6693083D01*
X1734500Y-6699148D01*
X1748487Y-6769469D01*
X1748488Y-6769470D01*
X1748488Y-6769471D01*
X1748489Y-6769472D01*
X1801777Y-6849223D01*
X1881528Y-6902511D01*
X1881529Y-6902511D01*
X1881530Y-6902512D01*
X1951851Y-6916499D01*
X1951855Y-6916500D01*
X1951856Y-6916500D01*
X2498145Y-6916500D01*
X2498146Y-6916499D01*
X2521798Y-6911794D01*
X2568469Y-6902512D01*
X2568469Y-6902511D01*
X2568472Y-6902511D01*
X2648223Y-6849223D01*
X2701511Y-6769472D01*
X2702116Y-6766433D01*
X2715499Y-6699148D01*
X2715500Y-6699145D01*
X2715500Y-5522855D01*
X2715499Y-5522851D01*
X2701512Y-5452530D01*
X2701510Y-5452526D01*
X2650398Y-5376031D01*
X2629520Y-5309354D01*
X2629500Y-5307141D01*
X2629500Y-4702517D01*
X2649185Y-4635478D01*
X2701989Y-4589723D01*
X2771147Y-4579779D01*
X2808385Y-4594717D01*
X2809580Y-4592273D01*
X2923751Y-4648087D01*
X2950000Y-4651911D01*
X2950000Y-3908000D01*
X3400000Y-3908000D01*
X3400000Y-4651910D01*
X3426248Y-4648087D01*
X3531191Y-4596784D01*
X3613787Y-4514188D01*
X3665087Y-4409251D01*
X3665088Y-4409248D01*
X3675000Y-4341219D01*
X3675000Y-3908000D01*
X3400000Y-3908000D01*
X2950000Y-3908000D01*
X2950000Y-2714087D01*
X2949999Y-2714086D01*
X3400000Y-2714086D01*
X3400000Y-3458000D01*
X3674999Y-3458000D01*
X3674999Y-3024782D01*
X3665087Y-2956750D01*
X3613784Y-2851808D01*
X3531188Y-2769212D01*
X3426249Y-2717911D01*
X3426250Y-2717911D01*
X3400000Y-2714086D01*
X2949999Y-2714086D01*
X2923750Y-2717911D01*
X2818811Y-2769212D01*
X2818809Y-2769214D01*
X2763034Y-2824990D01*
X2701711Y-2858475D01*
X2632019Y-2853491D01*
X2587672Y-2824990D01*
X2531485Y-2768803D01*
X2426391Y-2717426D01*
X2358261Y-2707500D01*
X2358260Y-2707500D01*
X1991740Y-2707500D01*
X1991739Y-2707500D01*
X1923608Y-2717426D01*
X1818514Y-2768803D01*
X1735803Y-2851514D01*
X1684426Y-2956608D01*
X1674500Y-3024739D01*
X1674500Y-4341260D01*
X1684426Y-4409391D01*
X1707901Y-4457410D01*
X1720500Y-4511870D01*
X1720500Y-5545500D01*
X1700815Y-5612539D01*
X1648011Y-5658294D01*
X1596500Y-5669500D01*
X963735Y-5669500D01*
X911330Y-5657882D01*
X894489Y-5650029D01*
X894487Y-5650028D01*
X894485Y-5650027D01*
X894483Y-5650027D01*
X844901Y-5643500D01*
X425105Y-5643500D01*
X409386Y-5645569D01*
X375513Y-5650028D01*
X375511Y-5650029D01*
X375506Y-5650030D01*
X289428Y-5690169D01*
X220351Y-5700661D01*
X156567Y-5672141D01*
X118328Y-5613664D01*
X113024Y-5577469D01*
X113128Y-5536903D01*
X121388Y-2315337D01*
X141245Y-2248351D01*
X194166Y-2202732D01*
X263350Y-2192966D01*
X302503Y-2209089D01*
X303899Y-2206449D01*
X312115Y-2210791D01*
X312118Y-2210793D01*
X327462Y-2216162D01*
X440299Y-2255646D01*
X470730Y-2258500D01*
X470734Y-2258500D01*
X1279270Y-2258500D01*
X1309699Y-2255646D01*
X1309701Y-2255646D01*
X1373790Y-2233219D01*
X1437882Y-2210793D01*
X1547150Y-2130150D01*
X1627793Y-2020882D01*
X1652588Y-1950022D01*
X1672646Y-1892701D01*
X1672646Y-1892699D01*
X1675500Y-1862269D01*
X1675500Y-453730D01*
X1672646Y-423300D01*
X1672646Y-423298D01*
X1626686Y-291955D01*
X1623123Y-222177D01*
X1657852Y-161549D01*
X1719845Y-129321D01*
X1743727Y-127000D01*
X3606273Y-127000D01*
X3673312Y-146685D01*
G37*
%TD.AperFunction*%
%TA.AperFunction,Conductor*%
G36*
X15056027Y-4632764D02*
G01*
X15098890Y-4687941D01*
X15107500Y-4733341D01*
X15107500Y-6480008D01*
X15113430Y-6535161D01*
X15124639Y-6586683D01*
X15131986Y-6613463D01*
X15171972Y-6683681D01*
X15182089Y-6701448D01*
X15190800Y-6711501D01*
X15227840Y-6754248D01*
X15227843Y-6754251D01*
X15227844Y-6754252D01*
X15261131Y-6786371D01*
X15350849Y-6833303D01*
X15417888Y-6852988D01*
X15417892Y-6852988D01*
X15417894Y-6852989D01*
X15429378Y-6854640D01*
X15491000Y-6863500D01*
X17001500Y-6863500D01*
X17068539Y-6883185D01*
X17114294Y-6935989D01*
X17125500Y-6987500D01*
X17125500Y-7045669D01*
X17105815Y-7112708D01*
X17089181Y-7133350D01*
X17061935Y-7160595D01*
X17011931Y-7267828D01*
X17005500Y-7316683D01*
X17005500Y-7665316D01*
X17011931Y-7714171D01*
X17061935Y-7821404D01*
X17131850Y-7891319D01*
X17165335Y-7952642D01*
X17160351Y-8022334D01*
X17118479Y-8078267D01*
X17053015Y-8102684D01*
X17044169Y-8103000D01*
X14909500Y-8103000D01*
X14842461Y-8083315D01*
X14796706Y-8030511D01*
X14785500Y-7979000D01*
X14785500Y-7957739D01*
X14775573Y-7889608D01*
X14775573Y-7889607D01*
X14724198Y-7784517D01*
X14724196Y-7784515D01*
X14724196Y-7784514D01*
X14641485Y-7701803D01*
X14536391Y-7650426D01*
X14468261Y-7640500D01*
X14468260Y-7640500D01*
X14458016Y-7640500D01*
X14390977Y-7620815D01*
X14345222Y-7568011D01*
X14335278Y-7498853D01*
X14364303Y-7435297D01*
X14370320Y-7428833D01*
X14502658Y-7296495D01*
X14510600Y-7289218D01*
X14539750Y-7264760D01*
X14558773Y-7231808D01*
X14564578Y-7222697D01*
X14586394Y-7191543D01*
X14586395Y-7191537D01*
X14588549Y-7186919D01*
X14595755Y-7169524D01*
X14597495Y-7164743D01*
X14597495Y-7164742D01*
X14597497Y-7164739D01*
X14604106Y-7127250D01*
X14606437Y-7116740D01*
X14616286Y-7079985D01*
X14616285Y-7079983D01*
X14616688Y-7078483D01*
X14648780Y-7022900D01*
X14724198Y-6947483D01*
X14775573Y-6842393D01*
X14785500Y-6774260D01*
X14785500Y-5682740D01*
X14775573Y-5614607D01*
X14724198Y-5509517D01*
X14724196Y-5509515D01*
X14724196Y-5509514D01*
X14641485Y-5426803D01*
X14536391Y-5375426D01*
X14468261Y-5365500D01*
X14468260Y-5365500D01*
X14101740Y-5365500D01*
X14101739Y-5365500D01*
X14033608Y-5375426D01*
X13928514Y-5426803D01*
X13845803Y-5509514D01*
X13794426Y-5614608D01*
X13784500Y-5682739D01*
X13784500Y-6774260D01*
X13794426Y-6842391D01*
X13833042Y-6921382D01*
X13844800Y-6990255D01*
X13817457Y-7054552D01*
X13809328Y-7063516D01*
X13743663Y-7129182D01*
X13682343Y-7162666D01*
X13655984Y-7165500D01*
X13203395Y-7165500D01*
X13136356Y-7145815D01*
X13090601Y-7093011D01*
X13080657Y-7023854D01*
X13084111Y-6999827D01*
X13086500Y-6983213D01*
X13086500Y-6959141D01*
X13079330Y-6898561D01*
X13065815Y-6842268D01*
X13049744Y-6798708D01*
X13043607Y-6775187D01*
X13041527Y-6762054D01*
X13040000Y-6742657D01*
X13040000Y-5714336D01*
X13041525Y-5694947D01*
X13043604Y-5681818D01*
X13049738Y-5658307D01*
X13065815Y-5614729D01*
X13079330Y-5558435D01*
X13086500Y-5497856D01*
X13086500Y-4823734D01*
X13106185Y-4756695D01*
X13158989Y-4710940D01*
X13208947Y-4699744D01*
X14739793Y-4680610D01*
X14793295Y-4674350D01*
X14843256Y-4663154D01*
X14868461Y-4656154D01*
X14909537Y-4632764D01*
X14922141Y-4625587D01*
X14990138Y-4609519D01*
X15056027Y-4632764D01*
G37*
%TD.AperFunction*%
%TD*%
M02*
